<svg width="17" height="17" viewBox="0 0 17 17" fill="none" xmlns="http://www.w3.org/2000/svg">
<path d="M3.21032 7.38438L4.2038 7.4984L3.21032 7.38438ZM3.20443 7.43523L4.19748 7.55293L3.20443 7.43523ZM2.19923 10.2843L1.34923 9.75755H1.34923L2.19923 10.2843ZM2.22638 10.2404L3.0783 10.7641L2.22638 10.2404ZM13.7897 7.38438L14.7832 7.27036L13.7897 7.38438ZM13.7956 7.43523L12.8025 7.55293L13.7956 7.43523ZM14.8008 10.2843L15.6508 9.75755V9.75755L14.8008 10.2843ZM14.7736 10.2404L13.9217 10.7641L14.7736 10.2404ZM1.32218 13.1472L0.692593 13.9241L1.32218 13.1472ZM1.67242 11.1344L2.52241 11.6612H2.52241L1.67242 11.1344ZM1.00691 12.6081L1.99389 12.4473L1.00691 12.6081ZM15.6778 13.1472L16.3074 13.9241L15.6778 13.1472ZM15.3276 11.1344L14.4776 11.6612V11.6612L15.3276 11.1344ZM15.9931 12.6081L15.0061 12.4473L15.9931 12.6081ZM13.5602 5.38478L12.5667 5.4988L13.5602 5.38478ZM3.43981 5.38478L2.44633 5.27076L3.43981 5.38478ZM6.83198 13.4802C6.7045 12.9429 6.16554 12.6106 5.62817 12.7381C5.09079 12.8655 4.75851 13.4045 4.88599 13.9419L6.83198 13.4802ZM12.114 13.9419C12.2415 13.4045 11.9092 12.8655 11.3718 12.7381C10.8345 12.6106 10.2955 12.9429 10.168 13.4802L12.114 13.9419ZM14.0301 12.3529H2.96988V14.3529H14.0301V12.3529ZM12.5667 5.4988L12.7962 7.4984L14.7832 7.27036L14.5537 5.27076L12.5667 5.4988ZM4.2038 7.4984L4.43329 5.4988L2.44633 5.27076L2.21684 7.27036L4.2038 7.4984ZM2.52241 11.6612L3.04923 10.8111L1.34923 9.75755L0.822416 10.6076L2.52241 11.6612ZM13.9508 10.8111L14.4776 11.6612L16.1776 10.6076L15.6508 9.75755L13.9508 10.8111ZM2.21684 7.27036C2.21383 7.29657 2.21261 7.30718 2.21139 7.31752L4.19748 7.55293C4.19925 7.53806 4.20095 7.52318 4.2038 7.4984L2.21684 7.27036ZM3.04923 10.8111C3.06249 10.7897 3.07042 10.7769 3.0783 10.7641L1.37446 9.71676C1.36894 9.72575 1.36323 9.73495 1.34923 9.75755L3.04923 10.8111ZM2.21139 7.31752C2.11107 8.16383 1.82638 8.98158 1.37446 9.71676L3.0783 10.7641C3.68074 9.78406 4.06275 8.68961 4.19748 7.55293L2.21139 7.31752ZM12.7962 7.4984C12.799 7.52316 12.8008 7.53805 12.8025 7.55293L14.7886 7.31752C14.7874 7.30718 14.7862 7.29659 14.7832 7.27036L12.7962 7.4984ZM15.6508 9.75755C15.6368 9.73497 15.6311 9.72575 15.6255 9.71676L13.9217 10.7641C13.9296 10.7769 13.9375 10.7897 13.9508 10.8111L15.6508 9.75755ZM12.8025 7.55293C12.9372 8.68961 13.3193 9.78406 13.9217 10.7641L15.6255 9.71676C15.1736 8.98158 14.8889 8.16383 14.7886 7.31752L12.8025 7.55293ZM2.96988 12.3529C2.48414 12.3529 2.19375 12.3518 1.98973 12.3319C1.77795 12.3113 1.8439 12.2829 1.95177 12.3703L0.692593 13.9241C1.05435 14.2173 1.47955 14.2917 1.79584 14.3225C2.1199 14.3541 2.52641 14.3529 2.96988 14.3529V12.3529ZM0.822416 10.6076C0.595129 10.9743 0.382596 11.3149 0.24179 11.6043C0.104124 11.8873 -0.0570071 12.2969 0.0199299 12.769L1.99389 12.4473C2.01922 12.6027 1.95181 12.6611 2.04028 12.4792C2.12561 12.3038 2.27163 12.0658 2.52241 11.6612L0.822416 10.6076ZM1.95177 12.3703C1.96961 12.3847 1.98793 12.4107 1.99389 12.4473L0.0199299 12.769C0.0945538 13.2268 0.336876 13.6359 0.692593 13.9241L1.95177 12.3703ZM14.0301 14.3529C14.4736 14.3529 14.8801 14.3541 15.2042 14.3225C15.5204 14.2917 15.9456 14.2173 16.3074 13.9241L15.0482 12.3703C15.1561 12.2829 15.222 12.3113 15.0103 12.3319C14.8063 12.3518 14.5159 12.3529 14.0301 12.3529V14.3529ZM14.4776 11.6612C14.7284 12.0658 14.8744 12.3038 14.9597 12.4792C15.0482 12.6611 14.9808 12.6027 15.0061 12.4473L16.9801 12.769C17.057 12.2969 16.8959 11.8873 16.7582 11.6043C16.6174 11.3149 16.4049 10.9743 16.1776 10.6076L14.4776 11.6612ZM16.3074 13.9241C16.6631 13.6359 16.9054 13.2268 16.9801 12.769L15.0061 12.4473C15.0121 12.4107 15.0304 12.3847 15.0482 12.3703L16.3074 13.9241ZM8.5 2C10.6118 2 12.341 3.53249 12.5667 5.4988L14.5537 5.27076C14.2064 2.24455 11.5768 0 8.5 0V2ZM8.5 0C5.42321 0 2.79364 2.24454 2.44633 5.27076L4.43329 5.4988C4.65895 3.53249 6.38822 2 8.5 2V0ZM4.88599 13.9419C5.08667 14.7878 5.53364 15.5568 6.1806 16.1175L7.49048 14.6061C7.18242 14.3392 6.94286 13.9476 6.83198 13.4802L4.88599 13.9419ZM6.1806 16.1175C6.83004 16.6804 7.64476 17 8.5 17L8.5 15C8.15146 15 7.79605 14.871 7.49048 14.6061L6.1806 16.1175ZM8.5 17C9.35524 17 10.17 16.6804 10.8194 16.1175L9.50952 14.6061C9.20395 14.871 8.84854 15 8.5 15L8.5 17ZM10.8194 16.1175C11.4664 15.5568 11.9133 14.7878 12.114 13.9419L10.168 13.4802C10.0571 13.9476 9.81757 14.3392 9.50952 14.6061L10.8194 16.1175Z" fill="#222222"/>
</svg>
