<svg width="17" height="18" viewBox="0 0 17 18" fill="none" xmlns="http://www.w3.org/2000/svg">
<mask id="path-1-outside-1_428_242" maskUnits="userSpaceOnUse" x="0" y="0" width="17" height="18" fill="black">
<rect fill="white" width="17" height="18"/>
<path fill-rule="evenodd" clip-rule="evenodd" d="M12.7491 7.31448L14.0803 5.83535L14.0803 5.83533L14.0804 5.83522C14.2102 5.69102 14.2751 5.6189 14.326 5.55176C14.8675 4.83736 14.8675 3.84992 14.326 3.13552C14.2751 3.06837 14.2102 2.99625 14.0804 2.85203L14.0803 2.85195L14.0803 2.85193C13.9234 2.67759 13.8449 2.59042 13.7739 2.52531C13.0093 1.8249 11.8363 1.8249 11.0718 2.52531C11.0007 2.59042 10.9223 2.67759 10.7654 2.85193L9.74261 3.98834C10.4466 5.33056 11.4808 6.47648 12.7491 7.31448ZM8.33317 5.55438L3.43465 10.9972L3.43464 10.9972C3.05621 11.4177 2.867 11.6279 2.74421 11.8786C2.62142 12.1293 2.57131 12.4077 2.47109 12.9644L2.05598 15.2706C1.99578 15.6051 1.96568 15.7723 2.0623 15.8651C2.15892 15.9578 2.3248 15.921 2.65654 15.8473L4.42352 15.4546C5.0431 15.3169 5.3529 15.2481 5.62249 15.0907C5.89208 14.9334 6.10438 14.6975 6.52897 14.2257L11.3989 8.81467C10.162 7.948 9.11897 6.8367 8.33317 5.55438Z"/>
</mask>
<path fill-rule="evenodd" clip-rule="evenodd" d="M12.7491 7.31448L14.0803 5.83535L14.0803 5.83533L14.0804 5.83522C14.2102 5.69102 14.2751 5.6189 14.326 5.55176C14.8675 4.83736 14.8675 3.84992 14.326 3.13552C14.2751 3.06837 14.2102 2.99625 14.0804 2.85203L14.0803 2.85195L14.0803 2.85193C13.9234 2.67759 13.8449 2.59042 13.7739 2.52531C13.0093 1.8249 11.8363 1.8249 11.0718 2.52531C11.0007 2.59042 10.9223 2.67759 10.7654 2.85193L9.74261 3.98834C10.4466 5.33056 11.4808 6.47648 12.7491 7.31448ZM8.33317 5.55438L3.43465 10.9972L3.43464 10.9972C3.05621 11.4177 2.867 11.6279 2.74421 11.8786C2.62142 12.1293 2.57131 12.4077 2.47109 12.9644L2.05598 15.2706C1.99578 15.6051 1.96568 15.7723 2.0623 15.8651C2.15892 15.9578 2.3248 15.921 2.65654 15.8473L4.42352 15.4546C5.0431 15.3169 5.3529 15.2481 5.62249 15.0907C5.89208 14.9334 6.10438 14.6975 6.52897 14.2257L11.3989 8.81467C10.162 7.948 9.11897 6.8367 8.33317 5.55438Z" fill="white"/>
<path d="M12.7491 7.31448L11.6465 8.98313L13.0835 9.9326L14.2357 8.65241L12.7491 7.31448ZM14.0803 5.83535L12.6182 4.47072L12.6058 4.48396L12.5937 4.49742L14.0803 5.83535ZM14.0803 5.83533L15.5424 7.19997L15.559 7.18221L15.5751 7.16406L14.0803 5.83533ZM14.0804 5.83522L12.5938 4.49727L12.5856 4.50649L14.0804 5.83522ZM14.326 5.55176L12.7321 4.34364L12.7321 4.34364L14.326 5.55176ZM14.326 3.13552L12.7321 4.34362L12.7321 4.34364L14.326 3.13552ZM14.0804 2.85203L12.5825 4.17732L12.5881 4.18366L12.5938 4.18995L14.0804 2.85203ZM14.0803 2.85195L15.5782 1.52665L15.5606 1.50674L15.5424 1.48731L14.0803 2.85195ZM14.0803 2.85193L12.5937 4.18985L12.6058 4.20332L12.6182 4.21656L14.0803 2.85193ZM13.7739 2.52531L12.4228 4L12.4228 4L13.7739 2.52531ZM11.0718 2.52531L12.4228 4L12.4228 4L11.0718 2.52531ZM10.7654 2.85193L12.252 4.18985L12.252 4.18985L10.7654 2.85193ZM9.74261 3.98834L8.25602 2.65041L7.325 3.68487L7.97147 4.91735L9.74261 3.98834ZM8.33317 5.55438L10.0384 4.50939L8.6387 2.22521L6.84658 4.21645L8.33317 5.55438ZM3.43465 10.9972L1.94806 9.65925L1.93871 9.66964L1.9295 9.68017L3.43465 10.9972ZM3.43464 10.9972L4.92123 12.3351L4.93058 12.3247L4.93979 12.3142L3.43464 10.9972ZM2.74421 11.8786L4.54033 12.7583L4.54033 12.7583L2.74421 11.8786ZM2.47109 12.9644L4.43946 13.3187L2.47109 12.9644ZM2.05598 15.2706L0.0876174 14.9163L0.0876173 14.9163L2.05598 15.2706ZM2.0623 15.8651L3.44754 14.4225L2.0623 15.8651ZM2.65654 15.8473L3.0904 17.7996L3.0904 17.7996L2.65654 15.8473ZM4.42352 15.4546L3.98966 13.5022L3.98966 13.5022L4.42352 15.4546ZM5.62249 15.0907L6.63066 16.818L6.63067 16.818L5.62249 15.0907ZM6.52897 14.2257L5.04238 12.8878L5.04238 12.8878L6.52897 14.2257ZM11.3989 8.81467L12.8855 10.1526L14.3969 8.47321L12.5466 7.17671L11.3989 8.81467ZM14.2357 8.65241L15.5669 7.17328L12.5937 4.49742L11.2625 5.97655L14.2357 8.65241ZM15.5424 7.19999L15.5424 7.19997L12.6182 4.47069L12.6182 4.47072L15.5424 7.19999ZM15.5751 7.16406L15.5752 7.16395L12.5856 4.50649L12.5855 4.5066L15.5751 7.16406ZM15.567 7.17314C15.6704 7.05823 15.8054 6.91087 15.9199 6.75987L12.7321 4.34364C12.7459 4.3254 12.7504 4.32153 12.7263 4.34915C12.6996 4.37967 12.6626 4.42083 12.5938 4.4973L15.567 7.17314ZM15.9199 6.75987C17.0029 5.33108 17.0029 3.3562 15.9199 1.9274L12.7321 4.34364L12.7321 4.34364L15.9199 6.75987ZM15.9199 1.92742C15.8054 1.7764 15.6704 1.62902 15.567 1.5141L12.5938 4.18995C12.6626 4.26643 12.6996 4.3076 12.7263 4.33813C12.7504 4.36575 12.7459 4.36187 12.7321 4.34362L15.9199 1.92742ZM15.5782 1.52673L15.5782 1.52665L12.5825 4.17724L12.5825 4.17732L15.5782 1.52673ZM15.5424 1.48731L15.5424 1.48729L12.6182 4.21656L12.6182 4.21658L15.5424 1.48731ZM15.5669 1.514C15.4424 1.37569 15.2852 1.19751 15.1249 1.05061L12.4228 4C12.4017 3.98067 12.398 3.97489 12.4305 4.00979C12.4648 4.04671 12.5109 4.09783 12.5937 4.18985L15.5669 1.514ZM15.1249 1.05061C13.5959 -0.350205 11.2498 -0.350205 9.72078 1.05061L12.4228 4L15.1249 1.05061ZM9.72078 1.05061C9.56044 1.19751 9.40327 1.37568 9.27879 1.514L12.252 4.18985C12.3348 4.09783 12.3809 4.04671 12.4152 4.00979C12.4477 3.97489 12.4439 3.98067 12.4228 4L9.72078 1.05061ZM9.27879 1.514L8.25602 2.65041L11.2292 5.32626L12.252 4.18985L9.27879 1.514ZM7.97147 4.91735C8.83206 6.55804 10.096 7.95863 11.6465 8.98313L13.8516 5.64583C12.8656 4.99433 12.0612 4.10308 11.5137 3.05932L7.97147 4.91735ZM6.84658 4.21645L1.94806 9.65925L4.92124 12.3351L9.81975 6.89231L6.84658 4.21645ZM1.9295 9.68017L1.92949 9.68018L4.93979 12.3142L4.9398 12.3142L1.9295 9.68017ZM1.94805 9.65926C1.64273 9.9985 1.22185 10.4399 0.948084 10.9989L4.54033 12.7583C4.51485 12.8104 4.49759 12.8226 4.55088 12.7564C4.61879 12.6722 4.71816 12.5608 4.92123 12.3351L1.94805 9.65926ZM0.948086 10.9989C0.674316 11.5578 0.583582 12.1609 0.502727 12.6101L4.43946 13.3187C4.49324 13.02 4.52035 12.8732 4.54531 12.7678C4.56489 12.6852 4.56582 12.7063 4.54033 12.7583L0.948086 10.9989ZM0.502727 12.6101L0.0876174 14.9163L4.02435 15.6249L4.43946 13.3187L0.502727 12.6101ZM0.0876173 14.9163C0.0692052 15.0186 0.00999343 15.3179 0.00130737 15.596C-0.00860143 15.9134 0.0249033 16.6814 0.677067 17.3077L3.44754 14.4225C3.69918 14.6641 3.85442 14.9517 3.93326 15.2241C4.00293 15.4649 4.00146 15.6537 3.99936 15.7209C3.99715 15.7915 3.98983 15.8278 3.99516 15.7929C4.00005 15.7607 4.00787 15.7164 4.02435 15.6249L0.0876173 14.9163ZM0.677067 17.3077C1.32923 17.9339 2.09804 17.9362 2.41471 17.9134C2.6923 17.8935 2.98894 17.8222 3.0904 17.7996L2.22268 13.8949C2.13188 13.9151 2.08793 13.9247 2.05604 13.9309C2.02137 13.9376 2.05735 13.9288 2.12779 13.9237C2.19488 13.9189 2.38344 13.9098 2.62683 13.9696C2.90225 14.0374 3.19589 14.1808 3.44754 14.4225L0.677067 17.3077ZM3.0904 17.7996L4.85738 17.407L3.98966 13.5022L2.22268 13.8949L3.0904 17.7996ZM4.85738 17.407C5.35628 17.2961 6.0294 17.169 6.63066 16.818L4.61432 13.3634C4.67046 13.3306 4.69479 13.3312 4.60287 13.3575C4.48591 13.3911 4.32202 13.4284 3.98966 13.5022L4.85738 17.407ZM6.63067 16.818C7.23193 16.4671 7.67367 15.9435 8.01556 15.5636L5.04238 12.8878C4.81462 13.1409 4.70156 13.2652 4.61483 13.3506C4.54667 13.4176 4.55817 13.3962 4.61431 13.3634L6.63067 16.818ZM8.01556 15.5636L12.8855 10.1526L9.91232 7.47674L5.04238 12.8878L8.01556 15.5636ZM12.5466 7.17671C11.5348 6.46783 10.6814 5.55857 10.0384 4.50939L6.62788 6.59938C7.55655 8.11482 8.78915 9.42817 10.2513 10.4526L12.5466 7.17671Z" fill="black" mask="url(#path-1-outside-1_428_242)"/>
</svg>
