<svg width="34" height="34" viewBox="0 0 34 34" fill="none" xmlns="http://www.w3.org/2000/svg">
<g clip-path="url(#clip0_4081_6)">
<path d="M2 7.90396C2 7.47783 2 7.26476 2.13238 7.13238C2.26476 7 2.47783 7 2.90395 7H31.096C31.5222 7 31.7352 7 31.8676 7.13238C32 7.26476 32 7.47783 32 7.90395V31.096C32 31.5222 32 31.7352 31.8676 31.8676C31.7352 32 31.5222 32 31.096 32H2.90395C2.47783 32 2.26476 32 2.13238 31.8676C2 31.7352 2 31.5222 2 31.096V7.90396Z" fill="#B5B6B6"/>
<path d="M2 15.3333H32ZM12 23.6667H22ZM10.3333 2V8.66667ZM23.6667 2V8.66667ZM2.90395 32H31.096C31.5222 32 31.7352 32 31.8676 31.8676C32 31.7352 32 31.5222 32 31.096V7.90395C32 7.47783 32 7.26476 31.8676 7.13238C31.7352 7 31.5222 7 31.096 7H2.90395C2.47783 7 2.26476 7 2.13238 7.13238C2 7.26476 2 7.47783 2 7.90396V31.096C2 31.5222 2 31.7352 2.13238 31.8676C2.26476 32 2.47783 32 2.90395 32Z" fill="#B5B6B6"/>
<path d="M2 15.3333H32M12 23.6667H22M10.3333 2V8.66667M23.6667 2V8.66667M2.90395 32H31.096C31.5222 32 31.7352 32 31.8676 31.8676C32 31.7352 32 31.5222 32 31.096V7.90395C32 7.47783 32 7.26476 31.8676 7.13238C31.7352 7 31.5222 7 31.096 7H2.90395C2.47783 7 2.26476 7 2.13238 7.13238C2 7.26476 2 7.47783 2 7.90396V31.096C2 31.5222 2 31.7352 2.13238 31.8676C2.26476 32 2.47783 32 2.90395 32Z" stroke="#222222" stroke-width="3" stroke-linecap="round"/>
</g>
<defs>
<clipPath id="clip0_4081_6">
<rect width="34" height="34" fill="white"/>
</clipPath>
</defs>
</svg>
