<svg width="35" height="38" viewBox="0 0 35 38" fill="none" xmlns="http://www.w3.org/2000/svg">
<g id="Vector">
<path d="M33 17.031C33 27.8383 19.9011 34.8654 17.7866 35.9293C17.5994 36.0236 17.4006 36.0236 17.2134 35.9293C15.0989 34.8654 2 27.8383 2 17.031C2 8.01239 9.51028 2 17.5 2C25.7667 2 33 8.01239 33 17.031Z" fill="#FFB800"/>
<path d="M10.0036 18.78L17.3208 25.8757C17.4057 25.9581 17.4481 25.9993 17.5 25.9993C17.5519 25.9993 17.5943 25.9581 17.6792 25.8757L24.9964 18.78C25.9579 17.8476 26.4386 17.3814 26.6738 16.8319C26.9195 16.2578 26.9816 15.6182 26.8512 15.0054C26.7265 14.4188 26.3449 13.8639 25.5819 12.7539C24.3228 10.9225 23.6933 10.0068 22.9408 9.67833C22.1583 9.33681 21.2691 9.36915 20.512 9.76665C19.7839 10.1489 19.2187 11.1081 18.0883 13.0264L17.6611 13.7514C17.6001 13.8549 17.5696 13.9066 17.5276 13.918C17.5095 13.923 17.4905 13.923 17.4724 13.918C17.4304 13.9066 17.3999 13.8549 17.3389 13.7514L16.9117 13.0264C15.7813 11.1081 15.2161 10.1489 14.488 9.76665C13.7309 9.36915 12.8417 9.33681 12.0592 9.67833C11.3067 10.0068 10.6772 10.9225 9.41811 12.7539C8.65506 13.8639 8.27354 14.4188 8.14876 15.0054C8.01838 15.6182 8.08052 16.2578 8.32622 16.8319C8.56138 17.3814 9.04211 17.8476 10.0036 18.78Z" fill="#FFB800"/>
<path d="M17.7866 35.9293L17.1124 34.5894L17.7866 35.9293ZM17.2134 35.9293L16.5392 37.2693L17.2134 35.9293ZM17.3208 25.8757L16.2765 26.9526L16.2765 26.9526L17.3208 25.8757ZM10.0036 18.78L8.95935 19.8568L10.0036 18.78ZM16.9117 13.0264L18.204 12.2649V12.2649L16.9117 13.0264ZM17.3389 13.7514L16.0466 14.5129L16.0466 14.5129L17.3389 13.7514ZM17.6611 13.7514L18.9534 14.5129L18.9534 14.5129L17.6611 13.7514ZM18.0883 13.0264L16.796 12.2649L16.796 12.2649L18.0883 13.0264ZM24.9964 18.78L23.9522 17.7032L24.9964 18.78ZM17.6792 25.8757L18.7235 26.9526L18.7235 26.9526L17.6792 25.8757ZM25.5819 12.7539L26.818 11.9042L26.818 11.9042L25.5819 12.7539ZM26.8512 15.0054L25.3841 15.3175L25.3841 15.3175L26.8512 15.0054ZM26.6738 16.8319L28.0528 17.4221L28.0528 17.4221L26.6738 16.8319ZM20.512 9.76665L21.2093 11.0947V11.0947L20.512 9.76665ZM22.9408 9.67833L22.3408 11.0531L22.9408 9.67833ZM17.4724 13.918L17.8673 12.471L17.8673 12.471L17.4724 13.918ZM17.5276 13.918L17.1327 12.471L17.1327 12.471L17.5276 13.918ZM9.41811 12.7539L10.6542 13.6037L9.41811 12.7539ZM12.0592 9.67833L11.4592 8.30357L12.0592 9.67833ZM14.488 9.76665L13.7907 11.0947L14.488 9.76665ZM8.32622 16.8319L9.70524 16.2418L8.32622 16.8319ZM8.14876 15.0054L9.61592 15.3175L8.14876 15.0054ZM31.5 17.031C31.5 21.8093 28.5945 25.8948 25.1732 29.0277C21.7803 32.1346 18.1154 34.0847 17.1124 34.5894L18.4608 37.2693C19.5724 36.71 23.5141 34.6146 27.1992 31.2402C30.856 27.8917 34.5 23.0599 34.5 17.031H31.5ZM17.8876 34.5894C16.8846 34.0847 13.2197 32.1346 9.82676 29.0277C6.40549 25.8948 3.5 21.8093 3.5 17.031H0.5C0.5 23.0599 4.14396 27.8917 7.80076 31.2402C11.4859 34.6146 15.4276 36.71 16.5392 37.2693L17.8876 34.5894ZM3.5 17.031C3.5 8.96416 10.2097 3.5 17.5 3.5V0.5C8.81083 0.5 0.5 7.06062 0.5 17.031H3.5ZM17.5 3.5C25.0495 3.5 31.5 8.94782 31.5 17.031H34.5C34.5 7.07696 26.4839 0.5 17.5 0.5V3.5ZM17.1124 34.5894C17.213 34.5388 17.3461 34.5 17.5 34.5C17.6539 34.5 17.787 34.5388 17.8876 34.5894L16.5392 37.2693C17.1505 37.5769 17.8495 37.5769 18.4608 37.2693L17.1124 34.5894ZM18.365 24.7989L11.0478 17.7032L8.95935 19.8568L16.2765 26.9526L18.365 24.7989ZM15.6194 13.7879L16.0466 14.5129L18.6312 12.9899L18.204 12.2649L15.6194 13.7879ZM18.9534 14.5129L19.3806 13.7879L16.796 12.2649L16.3688 12.9899L18.9534 14.5129ZM23.9522 17.7032L16.635 24.7989L18.7235 26.9526L26.0407 19.8568L23.9522 17.7032ZM24.3458 13.6037C24.7392 14.176 24.9897 14.5419 25.163 14.8365C25.3275 15.1161 25.3685 15.2441 25.3841 15.3175L28.3184 14.6932C28.2092 14.1801 27.9971 13.7374 27.7488 13.3154C27.5094 12.9084 27.1876 12.4418 26.818 11.9042L24.3458 13.6037ZM26.0407 19.8568C26.5062 19.4054 26.9121 19.013 27.2258 18.6621C27.5514 18.2978 27.846 17.9052 28.0528 17.4221L25.2948 16.2418C25.2664 16.3081 25.2031 16.4234 24.9891 16.6627C24.7633 16.9153 24.4481 17.2222 23.9522 17.7032L26.0407 19.8568ZM25.3841 15.3175C25.4503 15.6288 25.4183 15.9531 25.2948 16.2418L28.0528 17.4221C28.4207 16.5625 28.513 15.6076 28.3184 14.6932L25.3841 15.3175ZM19.3806 13.7879C19.9594 12.8058 20.3464 12.1514 20.675 11.6876C21.0044 11.2226 21.1612 11.12 21.2093 11.0947L19.8148 8.43856C19.1347 8.79557 18.6448 9.36366 18.227 9.95339C17.8083 10.5444 17.3476 11.3287 16.796 12.2649L19.3806 13.7879ZM26.818 11.9042C26.2036 11.0105 25.6901 10.2613 25.2316 9.70178C24.7741 9.14347 24.2454 8.61108 23.5408 8.30357L22.3408 11.0531C22.3887 11.074 22.551 11.1637 22.9112 11.6032C23.2704 12.0416 23.7011 12.6659 24.3458 13.6037L26.818 11.9042ZM21.2093 11.0947C21.5642 10.9084 21.9762 10.894 22.3408 11.0531L23.5408 8.30357C22.3404 7.77966 20.9741 7.82989 19.8147 8.43856L21.2093 11.0947ZM16.0466 14.5129C16.0584 14.533 16.1303 14.6594 16.2132 14.7698C16.2936 14.8769 16.5656 15.2254 17.0774 15.3651L17.8673 12.471C18.3371 12.5992 18.5729 12.9161 18.6123 12.9687C18.6287 12.9905 18.6403 13.0075 18.6464 13.0168C18.6497 13.0217 18.6521 13.0255 18.6536 13.0278C18.6551 13.0301 18.6559 13.0314 18.6559 13.0315C18.6559 13.0315 18.6554 13.0307 18.6543 13.0288C18.6531 13.0268 18.6515 13.0242 18.6493 13.0205C18.6446 13.0126 18.6393 13.0035 18.6312 12.9899L16.0466 14.5129ZM16.3688 12.9899C16.3607 13.0035 16.3554 13.0126 16.3507 13.0205C16.3485 13.0242 16.3469 13.0268 16.3457 13.0288C16.3446 13.0307 16.3441 13.0315 16.3441 13.0315C16.3441 13.0314 16.3449 13.0301 16.3464 13.0278C16.3479 13.0255 16.3503 13.0217 16.3536 13.0168C16.3597 13.0075 16.3713 12.9904 16.3877 12.9687C16.4271 12.9161 16.6629 12.5992 17.1327 12.471L17.9226 15.3651C18.4344 15.2254 18.7064 14.8769 18.7868 14.7698C18.8697 14.6594 18.9416 14.533 18.9534 14.5129L16.3688 12.9899ZM17.0774 15.3651C17.3541 15.4406 17.6459 15.4406 17.9226 15.3651L17.1327 12.471C17.3731 12.4053 17.6269 12.4053 17.8673 12.471L17.0774 15.3651ZM10.6542 13.6037C11.2989 12.6659 11.7296 12.0416 12.0888 11.6032C12.449 11.1637 12.6113 11.074 12.6592 11.0531L11.4592 8.30357C10.7546 8.61108 10.2259 9.14347 9.76839 9.70178C9.30995 10.2612 8.79638 11.0105 8.18203 11.9042L10.6542 13.6037ZM18.204 12.2649C17.6524 11.3287 17.1917 10.5444 16.773 9.95339C16.3552 9.36366 15.8653 8.79557 15.1853 8.43856L13.7907 11.0947C13.8388 11.12 13.9956 11.2226 14.325 11.6876C14.6536 12.1514 15.0406 12.8058 15.6194 13.7879L18.204 12.2649ZM12.6592 11.0531C13.0238 10.894 13.4358 10.9084 13.7907 11.0947L15.1853 8.43856C14.0259 7.82989 12.6596 7.77966 11.4592 8.30357L12.6592 11.0531ZM11.0478 17.7032C10.5519 17.2222 10.2367 16.9153 10.0109 16.6627C9.79693 16.4234 9.73365 16.3081 9.70524 16.2418L6.9472 17.4221C7.15395 17.9052 7.44862 18.2978 7.77421 18.6621C8.08792 19.013 8.49384 19.4054 8.95935 19.8568L11.0478 17.7032ZM8.18203 11.9042C7.8124 12.4418 7.49061 12.9084 7.25119 13.3154C7.00293 13.7374 6.79077 14.1801 6.68159 14.6932L9.61592 15.3175C9.63153 15.2441 9.67251 15.1161 9.83697 14.8365C10.0103 14.5419 10.2608 14.176 10.6542 13.6037L8.18203 11.9042ZM9.70524 16.2418C9.58172 15.9531 9.5497 15.6288 9.61592 15.3175L6.68159 14.6932C6.48705 15.6076 6.57932 16.5625 6.9472 17.4221L9.70524 16.2418ZM16.2765 26.9526C16.2892 26.9648 16.4027 27.0792 16.5283 27.1725C16.6873 27.2906 17.0229 27.4993 17.5 27.4993V24.4993C17.9252 24.4993 18.2137 24.6873 18.3173 24.7643C18.3434 24.7836 18.3628 24.7998 18.3743 24.8095C18.3858 24.8194 18.3931 24.8261 18.3945 24.8274C18.396 24.8288 18.3948 24.8277 18.3891 24.8222C18.3832 24.8165 18.3763 24.8099 18.365 24.7989L16.2765 26.9526ZM16.635 24.7989C16.6237 24.8099 16.6168 24.8165 16.6109 24.8222C16.6052 24.8277 16.604 24.8288 16.6055 24.8274C16.6069 24.8261 16.6142 24.8194 16.6257 24.8095C16.6372 24.7998 16.6566 24.7836 16.6827 24.7643C16.7863 24.6873 17.0748 24.4993 17.5 24.4993V27.4993C17.9771 27.4993 18.3127 27.2906 18.4717 27.1725C18.5973 27.0792 18.7108 26.9648 18.7235 26.9526L16.635 24.7989Z" fill="#222222"/>
</g>
</svg>
