<svg width="30" height="32" viewBox="0 0 30 32" fill="none" xmlns="http://www.w3.org/2000/svg">
<rect width="30" height="32" fill="#1E1E1E"/>
<g clip-path="url(#clip0_0_1)">
<rect width="375" height="667" transform="translate(-38 -614)" fill="white"/>
<g filter="url(#filter0_d_0_1)">
<rect x="-19" y="-43" width="340" height="51" rx="10" fill="#FFF8E5"/>
</g>
<g filter="url(#filter1_d_0_1)">
<rect x="-28" y="-12" width="355" height="56" rx="28" fill="#F2F2F2"/>
</g>
<mask id="path-3-inside-1_0_1" fill="white">
<path d="M0 15.5693C0 12.862 0 11.5084 0.588131 10.3186C1.17626 9.1287 2.28078 8.24777 4.48983 6.4859L6.63268 4.77683C10.6255 1.59228 12.6219 0 15 0C17.3781 0 19.3745 1.59228 23.3673 4.77683L25.5102 6.4859C27.7192 8.24777 28.8237 9.1287 29.4119 10.3186C30 11.5084 30 12.862 30 15.5693V24.0243C30 27.7841 30 29.664 28.7447 30.832C27.4895 32 25.4692 32 21.4286 32H8.57143C4.53082 32 2.51051 32 1.25526 30.832C0 29.664 0 27.7841 0 24.0243V15.5693Z"/>
</mask>
<path d="M0 15.5693C0 12.862 0 11.5084 0.588131 10.3186C1.17626 9.1287 2.28078 8.24777 4.48983 6.4859L6.63268 4.77683C10.6255 1.59228 12.6219 0 15 0C17.3781 0 19.3745 1.59228 23.3673 4.77683L25.5102 6.4859C27.7192 8.24777 28.8237 9.1287 29.4119 10.3186C30 11.5084 30 12.862 30 15.5693V24.0243C30 27.7841 30 29.664 28.7447 30.832C27.4895 32 25.4692 32 21.4286 32H8.57143C4.53082 32 2.51051 32 1.25526 30.832C0 29.664 0 27.7841 0 24.0243V15.5693Z" fill="#FFB800"/>
<path d="M18.8571 32C18.8571 32.8284 19.5287 33.5 20.3571 33.5C21.1856 33.5 21.8571 32.8284 21.8571 32H18.8571ZM8.14286 32C8.14286 32.8284 8.81443 33.5 9.64286 33.5C10.4713 33.5 11.1429 32.8284 11.1429 32H8.14286ZM10.5145 21.5365H19.4855V18.5365H10.5145V21.5365ZM18.8571 20.8615V32H21.8571V20.8615H18.8571ZM8.14286 20.8615V32H11.1429V20.8615H8.14286ZM19.4855 21.5365C19.2172 21.5365 18.8571 21.3109 18.8571 20.8615H21.8571C21.8571 19.5008 20.7166 18.5365 19.4855 18.5365V21.5365ZM10.5145 18.5365C9.28341 18.5365 8.14286 19.5008 8.14286 20.8615H11.1429C11.1429 21.3109 10.7828 21.5365 10.5145 21.5365V18.5365ZM6.63268 4.77683L8.50329 7.12221L6.63268 4.77683ZM23.3673 4.77683L21.4967 7.12221L21.4967 7.12221L23.3673 4.77683ZM25.5102 6.4859L27.3808 4.14052L27.3808 4.14052L25.5102 6.4859ZM4.48983 6.4859L2.61922 4.14052V4.14052L4.48983 6.4859ZM27 15.5693V24.0243H33V15.5693H27ZM21.4286 29H8.57143V35H21.4286V29ZM3 24.0243V15.5693H-3V24.0243H3ZM6.36043 8.83129L8.50329 7.12221L4.76208 2.43144L2.61922 4.14052L6.36043 8.83129ZM21.4967 7.12221L23.6396 8.83129L27.3808 4.14052L25.2379 2.43144L21.4967 7.12221ZM8.50329 7.12221C10.5582 5.48326 11.8902 4.42761 12.9926 3.75013C14.0206 3.11836 14.5649 3 15 3V-3C13.057 -3 11.414 -2.32222 9.85111 -1.36171C8.36257 -0.446917 6.69997 0.885841 4.76208 2.43144L8.50329 7.12221ZM25.2379 2.43144C23.3 0.885841 21.6374 -0.446918 20.1489 -1.36171C18.586 -2.32222 16.943 -3 15 -3V3C15.4351 3 15.9794 3.11836 17.0074 3.75013C18.1098 4.42761 19.4418 5.48326 21.4967 7.12221L25.2379 2.43144ZM8.57143 29C6.47207 29 5.17862 28.9945 4.24124 28.8772C3.80444 28.8226 3.56265 28.7554 3.43231 28.7055C3.32452 28.6643 3.30233 28.6389 3.29888 28.6357L-0.788367 33.0283C0.495634 34.223 2.03423 34.6479 3.49643 34.8308C4.89317 35.0055 6.63018 35 8.57143 35V29ZM-3 24.0243C-3 25.8132 -3.00734 27.4789 -2.81226 28.8291C-2.60132 30.289 -2.10303 31.805 -0.788367 33.0283L3.29888 28.6357C3.29777 28.6347 3.29405 28.638 3.27333 28.5911C3.24165 28.5194 3.17982 28.343 3.12607 27.971C3.00734 27.1493 3 25.9951 3 24.0243H-3ZM27 24.0243C27 25.9951 26.9927 27.1493 26.8739 27.971C26.8202 28.343 26.7584 28.5194 26.7267 28.5911C26.7059 28.638 26.7022 28.6347 26.7011 28.6357L30.7884 33.0283C32.103 31.805 32.6013 30.289 32.8123 28.8291C33.0073 27.4789 33 25.8132 33 24.0243H27ZM21.4286 35C23.3698 35 25.1068 35.0055 26.5036 34.8308C27.9658 34.6479 29.5044 34.223 30.7884 33.0283L26.7011 28.6357C26.6977 28.6389 26.6755 28.6643 26.5677 28.7055C26.4374 28.7554 26.1956 28.8226 25.7588 28.8772C24.8214 28.9945 23.5279 29 21.4286 29V35ZM33 15.5693C33 13.1508 33.072 10.9531 32.1013 8.98921L26.7225 11.6479C26.928 12.0637 27 12.5732 27 15.5693H33ZM23.6396 8.83129C26.0777 10.7759 26.5012 11.2002 26.7225 11.6479L32.1013 8.98921C31.1463 7.05719 29.3607 5.71966 27.3808 4.14052L23.6396 8.83129ZM3 15.5693C3 12.5732 3.072 12.0637 3.27753 11.6479L-2.10127 8.98921C-3.072 10.9531 -3 13.1508 -3 15.5693H3ZM2.61922 4.14052C0.639277 5.71966 -1.14629 7.05719 -2.10127 8.98921L3.27753 11.6479C3.49881 11.2002 3.92229 10.7759 6.36043 8.83129L2.61922 4.14052Z" fill="black" mask="url(#path-3-inside-1_0_1)"/>
</g>
<path d="M909.5 -286C909.5 31.3431 655.59 288.5 342.5 288.5C29.4097 288.5 -224.5 31.3431 -224.5 -286C-224.5 -603.343 29.4097 -860.5 342.5 -860.5C655.59 -860.5 909.5 -603.343 909.5 -286Z" stroke="white" stroke-width="9"/>
<defs>
<filter id="filter0_d_0_1" x="-23" y="-43" width="348" height="59" filterUnits="userSpaceOnUse" color-interpolation-filters="sRGB">
<feFlood flood-opacity="0" result="BackgroundImageFix"/>
<feColorMatrix in="SourceAlpha" type="matrix" values="0 0 0 0 0 0 0 0 0 0 0 0 0 0 0 0 0 0 127 0" result="hardAlpha"/>
<feOffset dy="4"/>
<feGaussianBlur stdDeviation="2"/>
<feComposite in2="hardAlpha" operator="out"/>
<feColorMatrix type="matrix" values="0 0 0 0 0 0 0 0 0 0 0 0 0 0 0 0 0 0 0.25 0"/>
<feBlend mode="normal" in2="BackgroundImageFix" result="effect1_dropShadow_0_1"/>
<feBlend mode="normal" in="SourceGraphic" in2="effect1_dropShadow_0_1" result="shape"/>
</filter>
<filter id="filter1_d_0_1" x="-32" y="-12" width="363" height="64" filterUnits="userSpaceOnUse" color-interpolation-filters="sRGB">
<feFlood flood-opacity="0" result="BackgroundImageFix"/>
<feColorMatrix in="SourceAlpha" type="matrix" values="0 0 0 0 0 0 0 0 0 0 0 0 0 0 0 0 0 0 127 0" result="hardAlpha"/>
<feOffset dy="4"/>
<feGaussianBlur stdDeviation="2"/>
<feComposite in2="hardAlpha" operator="out"/>
<feColorMatrix type="matrix" values="0 0 0 0 0 0 0 0 0 0 0 0 0 0 0 0 0 0 0.25 0"/>
<feBlend mode="normal" in2="BackgroundImageFix" result="effect1_dropShadow_0_1"/>
<feBlend mode="normal" in="SourceGraphic" in2="effect1_dropShadow_0_1" result="shape"/>
</filter>
<clipPath id="clip0_0_1">
<rect width="375" height="667" fill="white" transform="translate(-38 -614)"/>
</clipPath>
</defs>
</svg>
