<svg width="30" height="32" viewBox="0 0 30 32" fill="none" xmlns="http://www.w3.org/2000/svg">
<g clip-path="url(#clip0_4067_10)">
<mask id="mask0_4067_10" style="mask-type:luminance" maskUnits="userSpaceOnUse" x="-38" y="-614" width="375" height="667">
<path d="M337 -614H-38V53H337V-614Z" fill="white"/>
</mask>
<g mask="url(#mask0_4067_10)">
<path d="M0 15.5693C0 12.862 0 11.5084 0.588131 10.3186C1.17626 9.1287 2.28078 8.24777 4.48983 6.4859L6.63268 4.77683C10.6255 1.59228 12.6219 0 15 0C17.3781 0 19.3745 1.59228 23.3673 4.77683L25.5102 6.4859C27.7192 8.24777 28.8237 9.1287 29.4119 10.3186C30 11.5084 30 12.862 30 15.5693V24.0243C30 27.7841 30 29.664 28.7447 30.832C27.4895 32 25.4692 32 21.4286 32H8.57143C4.53082 32 2.51051 32 1.25526 30.832C0 29.664 0 27.7841 0 24.0243V15.5693Z" fill="#B5B6B6"/>
<mask id="mask1_4067_10" style="mask-type:luminance" maskUnits="userSpaceOnUse" x="0" y="0" width="30" height="32">
<path d="M0 15.5693C0 12.862 0 11.5084 0.588131 10.3186C1.17626 9.1287 2.28078 8.24777 4.48983 6.4859L6.63268 4.77683C10.6255 1.59228 12.6219 0 15 0C17.3781 0 19.3745 1.59228 23.3673 4.77683L25.5102 6.4859C27.7192 8.24777 28.8237 9.1287 29.4119 10.3186C30 11.5084 30 12.862 30 15.5693V24.0243C30 27.7841 30 29.664 28.7447 30.832C27.4895 32 25.4692 32 21.4286 32H8.57143C4.53082 32 2.51051 32 1.25526 30.832C0 29.664 0 27.7841 0 24.0243V15.5693Z" fill="white"/>
</mask>
<g mask="url(#mask1_4067_10)">
<path d="M18.8573 32C18.8573 32.8284 19.5289 33.5 20.3573 33.5C21.1858 33.5 21.8573 32.8284 21.8573 32H18.8573ZM8.14309 32C8.14309 32.8284 8.81466 33.5 9.64309 33.5C10.4715 33.5 11.1431 32.8284 11.1431 32H8.14309ZM10.5147 21.5365H19.4857V18.5365H10.5147V21.5365ZM18.8573 20.8615V32H21.8573V20.8615H18.8573ZM8.14309 20.8615V32H11.1431V20.8615H8.14309ZM19.4857 21.5365C19.2174 21.5365 18.8573 21.3109 18.8573 20.8615H21.8573C21.8573 19.5008 20.7168 18.5365 19.4857 18.5365V21.5365ZM10.5147 18.5365C9.28364 18.5365 8.14309 19.5008 8.14309 20.8615H11.1431C11.1431 21.3109 10.783 21.5365 10.5147 21.5365V18.5365ZM27.0002 15.5693V24.0243H33.0002V15.5693H27.0002ZM21.4288 29H8.57166V35H21.4288V29ZM3.00023 24.0243V15.5693H-2.99978V24.0243H3.00023ZM6.36065 8.83129L8.50352 7.12221L4.76231 2.43144L2.61944 4.14052L6.36065 8.83129ZM21.4969 7.12221L23.6398 8.83129L27.381 4.14052L25.2381 2.43144L21.4969 7.12221ZM8.50352 7.12221C10.5584 5.48326 11.8904 4.42761 12.9928 3.75013C14.0208 3.11836 14.5651 3 15.0002 3V-3C13.0572 -3 11.4142 -2.32222 9.85134 -1.36171C8.3628 -0.446917 6.7002 0.885841 4.76231 2.43144L8.50352 7.12221ZM25.2381 2.43144C23.3002 0.885841 21.6376 -0.446918 20.1491 -1.36171C18.5862 -2.32222 16.9432 -3 15.0002 -3V3C15.4353 3 15.9796 3.11836 17.0076 3.75013C18.11 4.42761 19.442 5.48326 21.4969 7.12221L25.2381 2.43144ZM8.57166 29C6.4723 29 5.17885 28.9945 4.24147 28.8772C3.80467 28.8226 3.56288 28.7554 3.43254 28.7055C3.32475 28.6643 3.30256 28.6389 3.29911 28.6357L-0.788142 33.0283C0.495859 34.223 2.03445 34.6479 3.49665 34.8308C4.89339 35.0055 6.63041 35 8.57166 35V29ZM-2.99978 24.0243C-2.99978 25.8132 -3.00711 27.4789 -2.81203 28.8291C-2.60109 30.289 -2.10281 31.805 -0.788142 33.0283L3.29911 28.6357C3.29911 28.6357 3.29427 28.638 3.27355 28.5911C3.24187 28.5194 3.18005 28.343 3.1263 27.971C3.00757 27.1493 3.00023 25.9951 3.00023 24.0243H-2.99978ZM27.0002 24.0243C27.0002 25.9951 26.9929 27.1493 26.8741 27.971C26.8204 28.343 26.7586 28.5194 26.7269 28.5911C26.7061 28.638 26.7013 28.6357 26.7013 28.6357L30.7886 33.0283C32.1032 31.805 32.6015 30.289 32.8125 28.8291C33.0075 27.4789 33.0002 25.8132 33.0002 24.0243H27.0002ZM21.4288 35C23.37 35 25.107 35.0055 26.5038 34.8308C27.966 34.6479 29.5046 34.223 30.7886 33.0283L26.7013 28.6357C26.6979 28.6389 26.6757 28.6643 26.5679 28.7055C26.4376 28.7554 26.1958 28.8226 25.759 28.8772C24.8216 28.9945 23.5281 29 21.4288 29V35ZM33.0002 15.5693C33.0002 13.1508 33.0722 10.9531 32.1015 8.98921L26.7227 11.6479C26.9282 12.0637 27.0002 12.5732 27.0002 15.5693H33.0002ZM23.6398 8.83129C26.0779 10.7759 26.5014 11.2002 26.7227 11.6479L32.1015 8.98921C31.1465 7.05719 29.3609 5.71966 27.381 4.14052L23.6398 8.83129ZM3.00023 15.5693C3.00023 12.5732 3.07222 12.0637 3.27775 11.6479L-2.10105 8.98921C-3.07178 10.9531 -2.99978 13.1508 -2.99978 15.5693H3.00023ZM2.61944 4.14052C0.639502 5.71966 -1.14606 7.05719 -2.10105 8.98921L3.27775 11.6479C3.49903 11.2002 3.92251 10.7759 6.36065 8.83129L2.61944 4.14052Z" fill="black"/>
</g>
</g>
</g>
<defs>
<clipPath id="clip0_4067_10">
<rect width="30" height="32" fill="white"/>
</clipPath>
</defs>
</svg>
