<svg width="40" height="39" viewBox="0 0 40 39" fill="none" xmlns="http://www.w3.org/2000/svg">
<path d="M5 12.875C5 9.10376 5 7.21815 6.17157 6.04657C7.34315 4.875 9.22876 4.875 13 4.875H27C30.7712 4.875 32.6569 4.875 33.8284 6.04657C35 7.21815 35 9.10376 35 12.875V26.125C35 29.8962 35 31.7819 33.8284 32.9534C32.6569 34.125 30.7712 34.125 27 34.125H13C9.22876 34.125 7.34315 34.125 6.17157 32.9534C5 31.7819 5 29.8962 5 26.125V12.875Z" fill="#B5B6B6" stroke="#222222" stroke-width="3"/>
<path fill-rule="evenodd" clip-rule="evenodd" d="M33 24.2777L30.1572 21.5059L30.1108 21.4607C29.4909 20.8562 28.956 20.3346 28.4708 19.9731C27.9503 19.5852 27.3739 19.2926 26.6667 19.2926C25.9595 19.2926 25.383 19.5852 24.8625 19.9731C24.3773 20.3346 23.8424 20.8562 23.2226 21.4607L23.1762 21.5059L21.3679 23.269C20.8752 23.7493 20.5847 24.029 20.3596 24.1919L20.3499 24.1988L20.3436 24.1888C20.1959 23.9534 20.0312 23.5853 19.7543 22.9554L18.2377 19.505L18.2059 19.4326C17.7057 18.2944 17.2854 17.3384 16.8539 16.6507C16.4016 15.9301 15.8153 15.3032 14.9025 15.1258C13.9898 14.9484 13.2113 15.31 12.5221 15.8088C11.8644 16.2848 11.1168 17.0138 10.2265 17.8818L10.1699 17.937L7 21.0277V23.821L11.5661 19.369C12.5281 18.4311 13.1706 17.8082 13.6946 17.4291C14.2009 17.0627 14.4057 17.0666 14.521 17.089C14.6362 17.1114 14.8276 17.1845 15.1598 17.7138C15.5037 18.2617 15.8661 19.0798 16.4068 20.3098L17.9234 23.7602L17.9505 23.8217C18.1907 24.3685 18.4138 24.8763 18.6496 25.2519C18.9057 25.66 19.2976 26.112 19.9533 26.2394C20.6091 26.3668 21.1417 26.0946 21.5321 25.8121C21.8914 25.5521 22.2884 25.1649 22.7159 24.7479L22.7641 24.701L24.5724 22.9379C25.2519 22.2753 25.6918 21.8493 26.0576 21.5768C26.4001 21.3215 26.5602 21.2926 26.6667 21.2926C26.7731 21.2926 26.9333 21.3215 27.2758 21.5768C27.6415 21.8493 28.0814 22.2753 28.761 22.9379L32.6352 26.7153L33 26.3412C33 26.2699 33 26.1976 33 26.1243V24.2777Z" fill="#222222"/>
<path d="M27.5 14.625C28.8807 14.625 30 13.5337 30 12.1875C30 10.8413 28.8807 9.75 27.5 9.75C26.1193 9.75 25 10.8413 25 12.1875C25 13.5337 26.1193 14.625 27.5 14.625Z" fill="#222222"/>
</svg>
