<svg width="35" height="36" viewBox="0 0 35 36" fill="none" xmlns="http://www.w3.org/2000/svg">
<path fill-rule="evenodd" clip-rule="evenodd" d="M20.1813 3.25947C20.4672 3.51894 20.5089 3.94812 20.5924 4.80647L20.6562 5.46283C20.8178 7.12558 20.8987 7.95696 21.458 8.185C22.0173 8.41305 22.6564 7.87521 23.9346 6.79953L24.3254 6.47064C25.0008 5.90227 25.3385 5.61809 25.7313 5.63773C26.1242 5.65737 26.4318 5.97382 27.0472 6.60672L28.6476 8.25285C29.2319 8.85385 29.524 9.15434 29.5428 9.53121C29.5615 9.90809 29.3006 10.2361 28.7788 10.8921L28.2836 11.5146C27.2791 12.7773 26.7769 13.4087 27.0067 13.9551C27.2365 14.5015 28.0391 14.584 29.6442 14.7491L30.2881 14.8153C31.1415 14.9031 31.5682 14.947 31.8258 15.2325C32.0834 15.5179 32.0834 15.9469 32.0834 16.8048V19.1952C32.0834 20.0531 32.0834 20.4821 31.8258 20.7675C31.5682 21.053 31.1415 21.0969 30.288 21.1847L29.6447 21.2508C28.0396 21.4159 27.2371 21.4985 27.0073 22.0449C26.7774 22.5912 27.2797 23.2226 28.2842 24.4854L28.7788 25.1073C29.3007 25.7633 29.5616 26.0912 29.5428 26.4681C29.5241 26.845 29.2319 27.1455 28.6476 27.7465L27.0472 29.3926C26.4319 30.0255 26.1242 30.342 25.7314 30.3616C25.3385 30.3812 25.0008 30.0971 24.3255 29.5287L23.9347 29.1998C22.6565 28.1241 22.0174 27.5863 21.458 27.8143C20.8987 28.0424 20.8179 28.8738 20.6563 30.5365L20.5924 31.1935C20.5089 32.0519 20.4672 32.4811 20.1813 32.7405C19.8954 33 19.4642 33 18.6018 33H16.3984C15.536 33 15.1048 33 14.8189 32.7405C14.533 32.4811 14.4912 32.0519 14.4078 31.1935L14.344 30.5371C14.1823 28.8743 14.1015 28.043 13.5422 27.8149C12.9829 27.5869 12.3438 28.1247 11.0656 29.2004L10.6747 29.5294C9.99928 30.0977 9.66159 30.3819 9.26873 30.3623C8.87587 30.3426 8.56821 30.0262 7.95289 29.3933L6.35248 27.7472C5.76818 27.1462 5.47603 26.8457 5.4573 26.4688C5.43856 26.0919 5.69946 25.7639 6.22127 25.108L6.71645 24.4854C7.72093 23.2227 8.22317 22.5913 7.99335 22.0449C7.76352 21.4985 6.96098 21.416 5.35589 21.2509L4.71211 21.1847C3.85867 21.0969 3.43195 21.053 3.17435 20.7675C2.91675 20.4821 2.91675 20.0531 2.91675 19.1952V16.8048C2.91675 15.9469 2.91675 15.5179 3.17435 15.2325C3.43195 14.947 3.85867 14.9031 4.71211 14.8153L5.35643 14.7491C6.96152 14.584 7.76407 14.5014 7.99389 13.955C8.22372 13.4087 7.72148 12.7773 6.717 11.5145L6.22133 10.8914C5.69952 10.2354 5.43862 9.90741 5.45736 9.53054C5.4761 9.15366 5.76824 8.85317 6.35254 8.25218L7.95295 6.60604C8.56827 5.97314 8.87593 5.65669 9.26879 5.63705C9.66165 5.61741 9.99934 5.90159 10.6747 6.46996L11.0656 6.79894C12.3438 7.87462 12.9829 8.41246 13.5422 8.18441C14.1015 7.95637 14.1824 7.12499 14.344 5.46224L14.4078 4.80647C14.4912 3.94812 14.533 3.51894 14.8189 3.25947C15.1048 3 15.536 3 16.3984 3H18.6018C19.4642 3 19.8954 3 20.1813 3.25947ZM17.5001 24C20.7217 24 23.3334 21.3137 23.3334 18C23.3334 14.6863 20.7217 12 17.5001 12C14.2784 12 11.6667 14.6863 11.6667 18C11.6667 21.3137 14.2784 24 17.5001 24Z" fill="#B5B6B6"/>
<path d="M20.5924 4.80647L19.5971 4.90323L20.5924 4.80647ZM20.6562 5.46283L19.6609 5.55959V5.55959L20.6562 5.46283ZM21.458 8.185L21.0804 9.11099V9.11099L21.458 8.185ZM23.9346 6.79953L23.2907 6.03441V6.03441L23.9346 6.79953ZM24.3254 6.47064L24.9693 7.23576V7.23576L24.3254 6.47064ZM25.7313 5.63773L25.7813 4.63898L25.7813 4.63898L25.7313 5.63773ZM27.0472 6.60672L27.7642 5.90964L27.7642 5.90964L27.0472 6.60672ZM28.6476 8.25285L27.9306 8.94993V8.94993L28.6476 8.25285ZM29.5428 9.53121L28.544 9.58087V9.58087L29.5428 9.53121ZM28.7788 10.8921L29.5614 11.5146L29.5614 11.5146L28.7788 10.8921ZM28.2836 11.5146L27.501 10.892V10.892L28.2836 11.5146ZM27.0067 13.9551L27.9285 13.5674V13.5674L27.0067 13.9551ZM29.6442 14.7491L29.5419 15.7439L29.6442 14.7491ZM30.2881 14.8153L30.3904 13.8206L30.2881 14.8153ZM31.8258 15.2325L31.0834 15.9024V15.9024L31.8258 15.2325ZM31.8258 20.7675L32.5682 21.4375L32.5682 21.4375L31.8258 20.7675ZM30.288 21.1847L30.1857 20.1899L30.1857 20.1899L30.288 21.1847ZM29.6447 21.2508L29.747 22.2456L29.6447 21.2508ZM27.0073 22.0449L27.929 22.4326V22.4326L27.0073 22.0449ZM28.2842 24.4854L29.0668 23.8629L29.0668 23.8629L28.2842 24.4854ZM28.7788 25.1073L27.9962 25.7298L27.9962 25.7298L28.7788 25.1073ZM29.5428 26.4681L28.5441 26.4185V26.4185L29.5428 26.4681ZM28.6476 27.7465L27.9306 27.0494L28.6476 27.7465ZM27.0472 29.3926L27.7642 30.0897L27.0472 29.3926ZM25.7314 30.3616L25.7813 31.3604L25.7314 30.3616ZM24.3255 29.5287L24.9693 28.7636L24.9693 28.7636L24.3255 29.5287ZM23.9347 29.1998L23.2908 29.9649L23.2908 29.9649L23.9347 29.1998ZM21.458 27.8143L21.0805 26.8883L21.458 27.8143ZM20.6563 30.5365L19.6609 30.4397V30.4397L20.6563 30.5365ZM20.5924 31.1935L21.5877 31.2903L20.5924 31.1935ZM20.1813 32.7405L19.5093 32L19.5093 32L20.1813 32.7405ZM14.8189 32.7405L15.4909 32L15.4909 32L14.8189 32.7405ZM14.4078 31.1935L15.4031 31.0968L14.4078 31.1935ZM14.344 30.5371L15.3393 30.4403L14.344 30.5371ZM13.5422 27.8149L13.1646 28.7409L13.5422 27.8149ZM11.0656 29.2004L10.4217 28.4353H10.4217L11.0656 29.2004ZM10.6747 29.5294L10.0308 28.7643L10.6747 29.5294ZM9.26873 30.3623L9.21879 31.361L9.26873 30.3623ZM7.95289 29.3933L8.66988 28.6962H8.66988L7.95289 29.3933ZM6.35248 27.7472L5.63548 28.4442H5.63548L6.35248 27.7472ZM5.4573 26.4688L4.45853 26.5185L5.4573 26.4688ZM6.22127 25.108L5.43867 24.4854L5.43866 24.4854L6.22127 25.108ZM6.71645 24.4854L7.49905 25.108L7.49905 25.108L6.71645 24.4854ZM5.35589 21.2509L5.25357 22.2456H5.25357L5.35589 21.2509ZM4.71211 21.1847L4.81443 20.1899H4.81443L4.71211 21.1847ZM3.17435 20.7675L2.43195 21.4375L2.43195 21.4375L3.17435 20.7675ZM3.17435 15.2325L3.91675 15.9024L3.91675 15.9024L3.17435 15.2325ZM4.71211 14.8153L4.6098 13.8206H4.6098L4.71211 14.8153ZM5.35643 14.7491L5.45875 15.7438H5.45875L5.35643 14.7491ZM7.99389 13.955L7.07212 13.5673V13.5673L7.99389 13.955ZM6.717 11.5145L7.4996 10.892V10.892L6.717 11.5145ZM6.22133 10.8914L7.00393 10.2689L6.22133 10.8914ZM5.45736 9.53054L6.45613 9.58019V9.58019L5.45736 9.53054ZM6.35254 8.25218L7.06954 8.94925L6.35254 8.25218ZM7.95295 6.60604L8.66994 7.30312H8.66995L7.95295 6.60604ZM9.26879 5.63705L9.21886 4.6383L9.26879 5.63705ZM10.6747 6.46996L10.0308 7.23508H10.0308L10.6747 6.46996ZM11.0656 6.79894L11.7095 6.03382L11.7095 6.03382L11.0656 6.79894ZM13.5422 8.18441L13.1647 7.25842L13.1647 7.25842L13.5422 8.18441ZM14.344 5.46224L15.3393 5.559L14.344 5.46224ZM14.4078 4.80647L15.4031 4.90323V4.90323L14.4078 4.80647ZM14.8189 3.25947L14.1469 2.51894L14.1469 2.51894L14.8189 3.25947ZM21.5877 4.7097C21.5485 4.30718 21.5118 3.90953 21.4375 3.58504C21.3568 3.2327 21.2061 2.83908 20.8533 2.51894L19.5093 4C19.4424 3.93933 19.4555 3.89004 19.488 4.03174C19.5269 4.2013 19.5528 4.44741 19.5971 4.90323L21.5877 4.7097ZM21.6515 5.36606L21.5877 4.7097L19.5971 4.90323L19.6609 5.55959L21.6515 5.36606ZM21.8355 7.25902C22.0134 7.33156 21.967 7.47709 21.8785 7.12088C21.7902 6.76553 21.7356 6.23128 21.6515 5.36606L19.6609 5.55959C19.7384 6.35713 19.8051 7.06994 19.9375 7.60298C20.0696 8.13516 20.3432 8.8104 21.0804 9.11099L21.8355 7.25902ZM23.2907 6.03441C22.6256 6.59415 22.213 6.93791 21.9014 7.13023C21.5891 7.32303 21.6576 7.18648 21.8355 7.25902L21.0804 9.11099C21.8176 9.41158 22.4854 9.12013 22.952 8.83209C23.4193 8.54359 23.9654 8.08059 24.5785 7.56465L23.2907 6.03441ZM23.6815 5.70553L23.2907 6.03441L24.5785 7.56465L24.9693 7.23576L23.6815 5.70553ZM25.7813 4.63898C25.2959 4.61471 24.9047 4.79316 24.5948 4.99167C24.3092 5.17468 23.9984 5.43884 23.6815 5.70553L24.9693 7.23576C25.3278 6.93408 25.5235 6.77196 25.6738 6.67569C25.7998 6.59493 25.7738 6.6411 25.6814 6.63648L25.7813 4.63898ZM27.7642 5.90964C27.4754 5.61268 27.1925 5.31883 26.9266 5.10825C26.6381 4.87982 26.2666 4.66324 25.7813 4.63898L25.6814 6.63648C25.5889 6.63186 25.5677 6.58333 25.6851 6.67626C25.825 6.78703 26.0036 6.96786 26.3302 7.3038L27.7642 5.90964ZM29.3646 7.55578L27.7642 5.90964L26.3302 7.3038L27.9306 8.94993L29.3646 7.55578ZM30.5415 9.48156C30.5184 9.01723 30.319 8.65762 30.1065 8.37505C29.911 8.11509 29.6384 7.83742 29.3646 7.55578L27.9306 8.94993C28.2411 9.26928 28.4067 9.44235 28.508 9.57711C28.5924 9.68925 28.5483 9.66833 28.544 9.58087L30.5415 9.48156ZM29.5614 11.5146C29.8059 11.2072 30.0496 10.9038 30.2184 10.6258C30.4018 10.3235 30.5646 9.94589 30.5415 9.48156L28.544 9.58087C28.5396 9.49341 28.5814 9.46823 28.5086 9.58818C28.4211 9.73232 28.2735 9.92097 27.9962 10.2695L29.5614 11.5146ZM29.0662 12.1371L29.5614 11.5146L27.9962 10.2695L27.501 10.892L29.0662 12.1371ZM27.9285 13.5674C28 13.7373 27.8731 13.806 28.0477 13.5046C28.224 13.2001 28.5429 12.795 29.0662 12.1371L27.501 10.892C27.0199 11.4969 26.5854 12.0389 26.317 12.5023C26.0467 12.9689 25.7836 13.6265 26.085 14.3428L27.9285 13.5674ZM29.7465 13.7544C28.9102 13.6683 28.3977 13.6129 28.0567 13.526C27.7192 13.44 27.857 13.3974 27.9285 13.5674L26.085 14.3428C26.3863 15.0592 27.0403 15.331 27.5628 15.4641C28.0818 15.5964 28.7731 15.6648 29.5419 15.7439L29.7465 13.7544ZM30.3904 13.8206L29.7465 13.7544L29.5419 15.7439L30.1857 15.8101L30.3904 13.8206ZM32.5682 14.5625C32.2505 14.2104 31.8594 14.0585 31.5088 13.9762C31.1861 13.9005 30.7905 13.8617 30.3904 13.8206L30.1857 15.8101C30.639 15.8567 30.8835 15.8838 31.0519 15.9233C31.1925 15.9563 31.1436 15.9691 31.0834 15.9024L32.5682 14.5625ZM33.0834 16.8048C33.0834 16.4026 33.0854 16.0051 33.043 15.6763C32.9971 15.3192 32.886 14.9146 32.5682 14.5625L31.0834 15.9024C31.0233 15.8358 31.041 15.7884 31.0594 15.9316C31.0815 16.1032 31.0834 16.3492 31.0834 16.8048H33.0834ZM33.0834 19.1952V16.8048H31.0834V19.1952H33.0834ZM32.5682 21.4375C32.886 21.0854 32.9971 20.6808 33.043 20.3237C33.0854 19.9949 33.0834 19.5974 33.0834 19.1952H31.0834C31.0834 19.6508 31.0815 19.8968 31.0594 20.0684C31.041 20.2116 31.0233 20.1642 31.0834 20.0976L32.5682 21.4375ZM30.3904 22.1794C30.7905 22.1383 31.1861 22.0995 31.5088 22.0238C31.8593 21.9415 32.2505 21.7896 32.5682 21.4375L31.0834 20.0976C31.1436 20.0309 31.1925 20.0437 31.0519 20.0767C30.8835 20.1162 30.639 20.1433 30.1857 20.1899L30.3904 22.1794ZM29.747 22.2456L30.3904 22.1794L30.1857 20.1899L29.5424 20.2561L29.747 22.2456ZM27.929 22.4326C27.8575 22.6026 27.7197 22.5599 28.0572 22.4739C28.3982 22.387 28.9107 22.3316 29.747 22.2456L29.5424 20.2561C28.7736 20.3352 28.0823 20.4036 27.5634 20.5358C27.0408 20.669 26.3868 20.9408 26.0855 21.6571L27.929 22.4326ZM29.0668 23.8629C28.5434 23.2049 28.2246 22.7998 28.0482 22.4953C27.8737 22.1939 28.0005 22.2626 27.929 22.4326L26.0855 21.6571C25.7842 22.3735 26.0473 23.031 26.3175 23.4976C26.5859 23.9611 27.0205 24.5031 27.5016 25.1079L29.0668 23.8629ZM29.5615 24.4848L29.0668 23.8629L27.5016 25.1079L27.9962 25.7298L29.5615 24.4848ZM30.5416 26.5178C30.5647 26.0534 30.4019 25.6758 30.2184 25.3736C30.0497 25.0955 29.806 24.7922 29.5614 24.4847L27.9962 25.7298C28.2735 26.0784 28.4212 26.267 28.5086 26.4112C28.5814 26.5311 28.5397 26.5059 28.5441 26.4185L30.5416 26.5178ZM29.3646 28.4436C29.6385 28.1619 29.911 27.8842 30.1065 27.6243C30.319 27.3417 30.5185 26.9821 30.5416 26.5178L28.5441 26.4185C28.5484 26.331 28.5924 26.3101 28.5081 26.4222C28.4067 26.557 28.2411 26.7301 27.9306 27.0494L29.3646 28.4436ZM27.7642 30.0897L29.3646 28.4436L27.9306 27.0494L26.3302 28.6955L27.7642 30.0897ZM25.7813 31.3604C26.2666 31.3361 26.6381 31.1195 26.9266 30.8911C27.1926 30.6805 27.4755 30.3867 27.7642 30.0897L26.3302 28.6955C26.0036 29.0315 25.825 29.2123 25.6851 29.3231C25.5678 29.416 25.589 29.3675 25.6815 29.3629L25.7813 31.3604ZM23.6816 30.2938C23.9985 30.5605 24.3093 30.8247 24.5949 31.0077C24.9048 31.2062 25.296 31.3846 25.7813 31.3604L25.6815 29.3629C25.7739 29.3582 25.7999 29.4044 25.6738 29.3236C25.5236 29.2274 25.3278 29.0653 24.9693 28.7636L23.6816 30.2938ZM23.2908 29.9649L23.6816 30.2938L24.9693 28.7636L24.5785 28.4347L23.2908 29.9649ZM21.8356 28.7403C21.6577 28.8129 21.5892 28.6763 21.9015 28.8691C22.213 29.0614 22.6256 29.4052 23.2908 29.9649L24.5785 28.4347C23.9655 27.9187 23.4194 27.4557 22.952 27.1672C22.4854 26.8792 21.8177 26.5878 21.0805 26.8883L21.8356 28.7403ZM21.6516 30.6333C21.7357 29.7681 21.7903 29.2338 21.8785 28.8785C21.967 28.5222 22.0135 28.6678 21.8356 28.7403L21.0805 26.8883C20.3433 27.1889 20.0697 27.8642 19.9375 28.3964C19.8051 28.9294 19.7385 29.6422 19.6609 30.4397L21.6516 30.6333ZM21.5877 31.2903L21.6516 30.6333L19.6609 30.4397L19.5971 31.0968L21.5877 31.2903ZM20.8533 33.4811C21.2061 33.1609 21.3568 32.7673 21.4375 32.415C21.5118 32.0905 21.5485 31.6928 21.5877 31.2903L19.5971 31.0968C19.5528 31.5526 19.5269 31.7987 19.488 31.9683C19.4555 32.11 19.4424 32.0607 19.5093 32L20.8533 33.4811ZM18.6018 34C19.0062 34 19.4055 34.0019 19.7357 33.9593C20.0942 33.9131 20.5005 33.8012 20.8533 33.4811L19.5093 32C19.5761 31.9393 19.6239 31.9572 19.4797 31.9758C19.3072 31.9981 19.0597 32 18.6018 32V34ZM16.3984 34H18.6018V32H16.3984V34ZM14.1469 33.4811C14.4996 33.8012 14.906 33.9131 15.2645 33.9593C15.5946 34.0019 15.994 34 16.3984 34V32C15.9404 32 15.693 31.9981 15.5204 31.9758C15.3763 31.9572 15.4241 31.9393 15.4909 32L14.1469 33.4811ZM13.4125 31.2903C13.4516 31.6928 13.4883 32.0905 13.5627 32.415C13.6434 32.7673 13.7941 33.1609 14.1469 33.4811L15.4909 32C15.5578 32.0607 15.5446 32.11 15.5121 31.9683C15.4733 31.7987 15.4474 31.5526 15.4031 31.0968L13.4125 31.2903ZM13.3487 30.6339L13.4125 31.2903L15.4031 31.0968L15.3393 30.4403L13.3487 30.6339ZM13.1646 28.7409C12.9867 28.6684 13.0332 28.5228 13.1217 28.879C13.2099 29.2344 13.2645 29.7686 13.3487 30.6339L15.3393 30.4403C15.2617 29.6428 15.1951 28.93 15.0627 28.3969C14.9305 27.8648 14.6569 27.1895 13.9197 26.8889L13.1646 28.7409ZM11.7095 29.9655C12.3746 29.4058 12.7872 29.062 13.0987 28.8697C13.4111 28.6769 13.3425 28.8134 13.1646 28.7409L13.9197 26.8889C13.1825 26.5883 12.5148 26.8798 12.0482 27.1678C11.5808 27.4563 11.0348 27.9193 10.4217 28.4353L11.7095 29.9655ZM11.3186 30.2945L11.7095 29.9655L10.4217 28.4353L10.0308 28.7643L11.3186 30.2945ZM9.21879 31.361C9.70412 31.3853 10.0954 31.2069 10.4052 31.0083C10.6909 30.8253 11.0017 30.5612 11.3186 30.2945L10.0308 28.7643C9.67229 29.0659 9.47655 29.2281 9.32629 29.3243C9.20024 29.4051 9.2262 29.3589 9.31866 29.3635L9.21879 31.361ZM7.23589 30.0904C7.52461 30.3873 7.80751 30.6812 8.07348 30.8918C8.36198 31.1202 8.73347 31.3368 9.21879 31.361L9.31866 29.3635C9.41112 29.3682 9.43235 29.4167 9.31498 29.3238C9.17507 29.213 8.99649 29.0321 8.66988 28.6962L7.23589 30.0904ZM5.63548 28.4442L7.23589 30.0904L8.66988 28.6962L7.06947 27.0501L5.63548 28.4442ZM4.45853 26.5185C4.48162 26.9828 4.68107 27.3424 4.89358 27.625C5.08907 27.8849 5.36166 28.1626 5.63548 28.4442L7.06947 27.0501C6.759 26.7307 6.59337 26.5577 6.49203 26.4229C6.4077 26.3108 6.45172 26.3317 6.45606 26.4191L4.45853 26.5185ZM5.43866 24.4854C5.19413 24.7928 4.95042 25.0962 4.78168 25.3742C4.59825 25.6765 4.43545 26.0541 4.45853 26.5185L6.45606 26.4191C6.46041 26.5066 6.41869 26.5318 6.49148 26.4118C6.57895 26.2677 6.7266 26.079 7.00387 25.7305L5.43866 24.4854ZM5.93385 23.8629L5.43867 24.4854L7.00387 25.7305L7.49905 25.108L5.93385 23.8629ZM7.07157 22.4326C7.00007 22.2626 7.12696 22.194 6.95242 22.4953C6.77604 22.7999 6.45722 23.205 5.93385 23.8629L7.49905 25.108C7.98017 24.5031 8.41471 23.9611 8.68311 23.4977C8.95335 23.0311 9.21645 22.3735 8.91512 21.6572L7.07157 22.4326ZM5.25357 22.2456C6.08987 22.3317 6.60238 22.387 6.94342 22.4739C7.2809 22.5599 7.14308 22.6026 7.07157 22.4326L8.91512 21.6572C8.61379 20.9408 7.95978 20.669 7.43727 20.5359C6.9183 20.4036 6.22699 20.3352 5.4582 20.2561L5.25357 22.2456ZM4.60979 22.1794L5.25357 22.2456L5.4582 20.2561L4.81443 20.1899L4.60979 22.1794ZM2.43195 21.4375C2.7497 21.7896 3.14081 21.9415 3.49132 22.0238C3.81405 22.0995 4.20962 22.1383 4.60979 22.1794L4.81443 20.1899C4.36116 20.1433 4.11665 20.1162 3.94826 20.0767C3.80764 20.0437 3.8566 20.0309 3.91675 20.0976L2.43195 21.4375ZM1.91675 19.1952C1.91675 19.5974 1.91481 19.9949 1.95713 20.3237C2.00309 20.6808 2.1142 21.0854 2.43195 21.4375L3.91675 20.0976C3.9769 20.1642 3.9592 20.2116 3.94077 20.0684C3.91869 19.8968 3.91675 19.6508 3.91675 19.1952H1.91675ZM1.91675 16.8048V19.1952H3.91675V16.8048H1.91675ZM2.43195 14.5625C2.1142 14.9146 2.00309 15.3192 1.95713 15.6763C1.91481 16.0051 1.91675 16.4026 1.91675 16.8048H3.91675C3.91675 16.3492 3.91869 16.1032 3.94077 15.9316C3.95921 15.7884 3.9769 15.8358 3.91675 15.9024L2.43195 14.5625ZM4.6098 13.8206C4.20962 13.8617 3.81405 13.9005 3.49132 13.9762C3.14082 14.0585 2.7497 14.2104 2.43195 14.5625L3.91675 15.9024C3.8566 15.9691 3.80764 15.9563 3.94826 15.9233C4.11665 15.8838 4.36116 15.8567 4.81443 15.8101L4.6098 13.8206ZM5.25412 13.7543L4.6098 13.8206L4.81443 15.8101L5.45875 15.7438L5.25412 13.7543ZM7.07212 13.5673C7.14362 13.3973 7.28145 13.44 6.94396 13.526C6.60293 13.6129 6.09042 13.6683 5.25412 13.7543L5.45875 15.7438C6.22754 15.6647 6.91884 15.5963 7.43781 15.4641C7.96033 15.3309 8.61434 15.0591 8.91567 14.3428L7.07212 13.5673ZM5.9344 12.137C6.45776 12.795 6.77658 13.2001 6.95296 13.5046C7.12751 13.806 7.00062 13.7373 7.07212 13.5673L8.91567 14.3428C9.21699 13.6264 8.9539 12.9689 8.68366 12.5023C8.41525 12.0388 7.98071 11.4968 7.4996 10.892L5.9344 12.137ZM5.43873 11.5139L5.9344 12.137L7.4996 10.892L7.00393 10.2689L5.43873 11.5139ZM4.45859 9.48088C4.43551 9.94521 4.59831 10.3228 4.78174 10.6251C4.95049 10.9032 5.19419 11.2065 5.43873 11.5139L7.00393 10.2689C6.72666 9.92029 6.57901 9.73164 6.49154 9.5875C6.41875 9.46755 6.46047 9.49273 6.45613 9.58019L4.45859 9.48088ZM5.63555 7.5551C5.36172 7.83674 5.08913 8.11441 4.89364 8.37437C4.68114 8.65695 4.48168 9.01655 4.45859 9.48088L6.45613 9.58019C6.45178 9.66765 6.40776 9.68857 6.49209 9.57643C6.59343 9.44167 6.75906 9.2686 7.06954 8.94925L5.63555 7.5551ZM7.23596 5.90896L5.63555 7.5551L7.06954 8.94925L8.66994 7.30312L7.23596 5.90896ZM9.21886 4.6383C8.73353 4.66256 8.36204 4.87914 8.07354 5.10757C7.80757 5.31815 7.52467 5.612 7.23595 5.90896L8.66995 7.30312C8.99655 6.96719 9.17514 6.78636 9.31505 6.67558C9.43242 6.58265 9.41119 6.63118 9.31873 6.6358L9.21886 4.6383ZM11.3186 5.70485C11.0017 5.43816 10.6909 5.174 10.4053 4.99099C10.0954 4.79248 9.70418 4.61403 9.21886 4.6383L9.31873 6.6358C9.22626 6.64042 9.2003 6.59425 9.32635 6.67501C9.47661 6.77128 9.67235 6.9334 10.0308 7.23508L11.3186 5.70485ZM11.7095 6.03382L11.3186 5.70485L10.0308 7.23508L10.4217 7.56405L11.7095 6.03382ZM13.1647 7.25842C13.3426 7.18588 13.4111 7.32243 13.0988 7.12964C12.7872 6.93732 12.3746 6.59355 11.7095 6.03382L10.4217 7.56405C11.0348 8.08 11.5809 8.543 12.0482 8.8315C12.5149 9.11954 13.1826 9.41099 13.9198 9.1104L13.1647 7.25842ZM13.3487 5.36547C13.2646 6.23069 13.21 6.76494 13.1217 7.12029C13.0333 7.4765 12.9868 7.33096 13.1647 7.25842L13.9198 9.1104C14.657 8.80981 14.9306 8.13457 15.0628 7.60239C15.1952 7.06935 15.2618 6.35654 15.3393 5.559L13.3487 5.36547ZM13.4125 4.7097L13.3487 5.36547L15.3393 5.559L15.4031 4.90323L13.4125 4.7097ZM14.1469 2.51894C13.7941 2.83909 13.6434 3.2327 13.5627 3.58504C13.4883 3.90953 13.4516 4.30718 13.4125 4.7097L15.4031 4.90323C15.4474 4.44741 15.4733 4.2013 15.5121 4.03174C15.5446 3.89004 15.5578 3.93933 15.4909 4L14.1469 2.51894ZM16.3984 2C15.994 2 15.5946 1.99805 15.2645 2.04066C14.906 2.08692 14.4996 2.1988 14.1469 2.51894L15.4909 4C15.4241 4.06067 15.3763 4.04282 15.5204 4.02421C15.693 4.00195 15.9404 4 16.3984 4V2ZM18.6018 2H16.3984V4H18.6018V2ZM20.8533 2.51894C20.5005 2.1988 20.0942 2.08692 19.7357 2.04066C19.4055 1.99805 19.0062 2 18.6018 2V4C19.0597 4 19.3072 4.00195 19.4797 4.02421C19.6239 4.04282 19.5761 4.06067 19.5093 4L20.8533 2.51894ZM22.3334 18C22.3334 20.7882 20.1431 23 17.5001 23V25C21.3004 25 24.3334 21.8393 24.3334 18H22.3334ZM17.5001 13C20.1431 13 22.3334 15.2118 22.3334 18H24.3334C24.3334 14.1607 21.3004 11 17.5001 11V13ZM12.6667 18C12.6667 15.2118 14.8571 13 17.5001 13V11C13.6998 11 10.6667 14.1607 10.6667 18H12.6667ZM17.5001 23C14.8571 23 12.6667 20.7882 12.6667 18H10.6667C10.6667 21.8393 13.6998 25 17.5001 25V23Z" fill="black"/>
</svg>
