<svg width="40" height="39" viewBox="0 0 40 39" fill="none" xmlns="http://www.w3.org/2000/svg">
<path d="M5 12.875C5 9.10376 5 7.21815 6.17157 6.04657C7.34315 4.875 9.22876 4.875 13 4.875H27C30.7712 4.875 32.6569 4.875 33.8284 6.04657C35 7.21815 35 9.10376 35 12.875V26.125C35 29.8962 35 31.7819 33.8284 32.9534C32.6569 34.125 30.7712 34.125 27 34.125H13C9.22876 34.125 7.34315 34.125 6.17157 32.9534C5 31.7819 5 29.8962 5 26.125V12.875Z" stroke="#222222" stroke-width="3"/>
<path fill-rule="evenodd" clip-rule="evenodd" d="M33 24.2781L30.1572 21.5063L30.1108 21.4611C29.4909 20.8567 28.956 20.3351 28.4708 19.9735C27.9503 19.5857 27.3739 19.293 26.6667 19.293C25.9595 19.293 25.383 19.5857 24.8625 19.9735C24.3773 20.3351 23.8424 20.8567 23.2226 21.4611L23.2225 21.4611L23.1762 21.5063L21.3679 23.2694C20.8752 23.7498 20.5847 24.0294 20.3596 24.1923L20.3499 24.1992L20.3436 24.1892C20.1959 23.9539 20.0312 23.5857 19.7543 22.9558L18.2377 19.5055L18.2059 19.433L18.2058 19.433C17.7056 18.2947 17.2854 17.3388 16.8539 16.6511C16.4016 15.9305 15.8153 15.3036 14.9025 15.1262C13.9898 14.9488 13.2113 15.3105 12.5221 15.8092C11.8644 16.2852 11.1168 17.0142 10.2265 17.8822L10.2265 17.8822L10.1699 17.9375L7 21.0281V23.8214L11.5661 19.3695C12.5281 18.4315 13.1706 17.8087 13.6946 17.4295C14.2009 17.0631 14.4057 17.0671 14.521 17.0895C14.6362 17.1119 14.8276 17.1849 15.1598 17.7143C15.5037 18.2621 15.8661 19.0803 16.4068 20.3103L17.9234 23.7606L17.9505 23.8222C18.1907 24.3689 18.4138 24.8767 18.6496 25.2523C18.9057 25.6605 19.2976 26.1124 19.9533 26.2398C20.6091 26.3673 21.1417 26.095 21.5321 25.8126C21.8914 25.5526 22.2884 25.1653 22.7159 24.7484L22.716 24.7483L22.7641 24.7014L24.5724 22.9383C25.2519 22.2758 25.6918 21.8498 26.0576 21.5772C26.4001 21.322 26.5602 21.293 26.6667 21.293C26.7731 21.293 26.9333 21.322 27.2758 21.5772C27.6415 21.8498 28.0814 22.2758 28.761 22.9383L32.6352 26.7157L33 26.3417C33 26.2703 33 26.198 33 26.1247V24.2781ZM20.2162 24.2804C20.2163 24.2804 20.2177 24.2798 20.2204 24.2789C20.2175 24.2801 20.2162 24.2805 20.2162 24.2804ZM20.4402 24.3216C20.4424 24.3235 20.4435 24.3245 20.4435 24.3246C20.4435 24.3247 20.4424 24.3238 20.4402 24.3216Z" fill="#222222"/>
<ellipse cx="27.5" cy="12.1875" rx="2.5" ry="2.4375" fill="#222222"/>
</svg>
