<svg width="40" height="39" viewBox="0 0 40 39" fill="none" xmlns="http://www.w3.org/2000/svg">
<path d="M5 13C5 9.22876 5 7.34315 6.17157 6.17157C7.34315 5 9.22876 5 13 5H27C30.7712 5 32.6569 5 33.8284 6.17157C35 7.34315 35 9.22876 35 13V26.25C35 30.0212 35 31.9069 33.8284 33.0784C32.6569 34.25 30.7712 34.25 27 34.25H13C9.22876 34.25 7.34315 34.25 6.17157 33.0784C5 31.9069 5 30.0212 5 26.25V13Z" fill="white" stroke="#222222" stroke-width="3"/>
<path fill-rule="evenodd" clip-rule="evenodd" d="M33 24.4027L30.1572 21.6309L30.1108 21.5857C29.4909 20.9812 28.956 20.4596 28.4708 20.0981C27.9503 19.7102 27.3739 19.4176 26.6667 19.4176C25.9595 19.4176 25.383 19.7102 24.8625 20.0981C24.3773 20.4596 23.8424 20.9812 23.2226 21.5857L23.1762 21.6309L21.3679 23.394C20.8752 23.8743 20.5847 24.154 20.3596 24.3169L20.3499 24.3238L20.3436 24.3138C20.1959 24.0784 20.0312 23.7103 19.7543 23.0804L18.2377 19.63L18.2059 19.5576C17.7057 18.4194 17.2854 17.4634 16.8539 16.7757C16.4016 16.0551 15.8153 15.4282 14.9025 15.2508C13.9898 15.0734 13.2113 15.435 12.5221 15.9338C11.8644 16.4098 11.1168 17.1388 10.2265 18.0068L10.1699 18.062L7 21.1527V23.946L11.5661 19.494C12.5281 18.5561 13.1706 17.9332 13.6946 17.5541C14.2009 17.1877 14.4057 17.1916 14.521 17.214C14.6362 17.2364 14.8276 17.3095 15.1598 17.8388C15.5037 18.3867 15.8661 19.2048 16.4068 20.4348L17.9234 23.8852L17.9505 23.9467C18.1907 24.4935 18.4138 25.0013 18.6496 25.3769C18.9057 25.785 19.2976 26.237 19.9533 26.3644C20.6091 26.4918 21.1417 26.2196 21.5321 25.9371C21.8914 25.6771 22.2884 25.2899 22.7159 24.8729L22.7641 24.826L24.5724 23.0629C25.2519 22.4003 25.6918 21.9743 26.0576 21.7018C26.4001 21.4465 26.5602 21.4176 26.6667 21.4176C26.7731 21.4176 26.9333 21.4465 27.2758 21.7018C27.6415 21.9743 28.0814 22.4003 28.761 23.0629L32.6352 26.8403L33 26.4662C33 26.3949 33 26.3226 33 26.2493V24.4027Z" fill="#222222"/>
<path d="M27.5 14.75C28.8807 14.75 30 13.6587 30 12.3125C30 10.9663 28.8807 9.875 27.5 9.875C26.1193 9.875 25 10.9663 25 12.3125C25 13.6587 26.1193 14.75 27.5 14.75Z" fill="#222222"/>
<path d="M5 12.875C5 9.10376 5 7.21815 6.17157 6.04657C7.34315 4.875 9.22876 4.875 13 4.875H27C30.7712 4.875 32.6569 4.875 33.8284 6.04657C35 7.21815 35 9.10376 35 12.875V26.125C35 29.8962 35 31.7819 33.8284 32.9534C32.6569 34.125 30.7712 34.125 27 34.125H13C9.22876 34.125 7.34315 34.125 6.17157 32.9534C5 31.7819 5 29.8962 5 26.125V12.875Z" stroke="#222222" stroke-width="3"/>
<path fill-rule="evenodd" clip-rule="evenodd" d="M33 24.2777L30.1572 21.5059L30.1108 21.4607C29.4909 20.8563 28.956 20.3347 28.4708 19.9731C27.9503 19.5853 27.3739 19.2926 26.6667 19.2926C25.9595 19.2926 25.383 19.5853 24.8625 19.9731C24.3773 20.3347 23.8424 20.8563 23.2226 21.4607L23.1762 21.5059L21.3679 23.269C20.8752 23.7494 20.5847 24.029 20.3596 24.1919L20.3499 24.1988L20.3436 24.1888C20.1959 23.9535 20.0312 23.5853 19.7543 22.9554L18.2377 19.5051L18.2059 19.4326C17.7057 18.2943 17.2854 17.3384 16.8539 16.6507C16.4016 15.9301 15.8153 15.3032 14.9025 15.1258C13.9898 14.9484 13.2113 15.3101 12.5221 15.8088C11.8644 16.2848 11.1168 17.0138 10.2265 17.8818L10.1699 17.9371L7 21.0277V23.821L11.5661 19.3691C12.5281 18.4311 13.1706 17.8083 13.6946 17.4291C14.2009 17.0627 14.4057 17.0667 14.521 17.0891C14.6362 17.1115 14.8276 17.1845 15.1598 17.7139C15.5037 18.2617 15.8661 19.0799 16.4068 20.3099L17.9234 23.7602L17.9505 23.8218C18.1907 24.3685 18.4138 24.8763 18.6496 25.2519C18.9057 25.6601 19.2976 26.112 19.9533 26.2394C20.6091 26.3669 21.1417 26.0946 21.5321 25.8122C21.8914 25.5522 22.2884 25.1649 22.7159 24.748L22.7641 24.701L24.5724 22.9379C25.2519 22.2754 25.6918 21.8494 26.0576 21.5768C26.4001 21.3216 26.5602 21.2926 26.6667 21.2926C26.7731 21.2926 26.9333 21.3216 27.2758 21.5768C27.6415 21.8494 28.0814 22.2754 28.761 22.9379L32.6352 26.7153L33 26.3413C33 26.2699 33 26.1976 33 26.1243V24.2777Z" fill="#222222"/>
<path d="M27.5 14.625C28.8807 14.625 30 13.5337 30 12.1875C30 10.8413 28.8807 9.75 27.5 9.75C26.1193 9.75 25 10.8413 25 12.1875C25 13.5337 26.1193 14.625 27.5 14.625Z" fill="#222222"/>
</svg>
