<svg width="56" height="56" viewBox="0 0 56 56" fill="none" xmlns="http://www.w3.org/2000/svg">
<ellipse cx="28" cy="22" rx="10" ry="9" fill="white"/>
<ellipse cx="28" cy="45.5" rx="17" ry="7.5" fill="white"/>
<path d="M28 10C21.4 10 16 15.4 16 22C16 28.6 21.4 34 28 34C34.6 34 40 28.6 40 22C40 15.4 34.6 10 28 10ZM28 30C23.6 30 20 26.4 20 22C20 17.6 23.6 14 28 14C32.4 14 36 17.6 36 22C36 26.4 32.4 30 28 30Z" fill="black"/>
<path d="M28 0C12.5 0 0 12.5 0 28C0 35.6 3.1 42.6 8 47.6C9.2 48.8 10.5 49.9 12 50.9C16.5 54.1 22 55.9 28 55.9C34 55.9 39.5 54 44 50.9C45.4 49.9 46.7 48.8 48 47.6C53 42.5 56 35.6 56 28C56 12.5 43.5 0 28 0ZM28 52C22 52 16.6 49.8 12.4 46.2C13.5 42.6 16.8 40 20.7 40H35.4C39.3 40 42.6 42.6 43.7 46.2C39.4 49.8 34 52 28 52ZM46.7 43C44.6 38.8 40.3 36 35.4 36H20.7C15.7 36 11.4 38.9 9.4 43C6 38.9 4 33.7 4 28C4 14.8 14.8 4 28 4C41.2 4 52 14.8 52 28C52 33.7 50 38.9 46.7 43Z" fill="black"/>
</svg>
