<svg width="35" height="36" viewBox="0 0 35 36" fill="none" xmlns="http://www.w3.org/2000/svg">
<path fill-rule="evenodd" clip-rule="evenodd" d="M20.181 3.25947C20.467 3.51894 20.5087 3.94812 20.5921 4.80647L20.6559 5.46283C20.8176 7.12558 20.8984 7.95696 21.4577 8.185C22.017 8.41305 22.6561 7.87521 23.9343 6.79953L24.3251 6.47064C25.0005 5.90227 25.3382 5.61809 25.7311 5.63773C26.1239 5.65737 26.4316 5.97382 27.0469 6.60672L28.6473 8.25285C29.2316 8.85385 29.5238 9.15434 29.5425 9.53121C29.5612 9.90809 29.3003 10.2361 28.7785 10.8921L28.2834 11.5146C27.2789 12.7773 26.7767 13.4087 27.0065 13.9551C27.2363 14.5015 28.0389 14.584 29.6439 14.7491L30.2878 14.8153C31.1413 14.9031 31.568 14.947 31.8256 15.2325C32.0832 15.5179 32.0832 15.9469 32.0832 16.8048V19.1952C32.0832 20.0531 32.0832 20.4821 31.8256 20.7675C31.568 21.053 31.1412 21.0969 30.2878 21.1847L29.6445 21.2508C28.0394 21.4159 27.2369 21.4985 27.007 22.0449C26.7772 22.5912 27.2794 23.2226 28.2839 24.4854L28.7786 25.1073C29.3004 25.7633 29.5613 26.0912 29.5426 26.4681C29.5238 26.845 29.2317 27.1455 28.6474 27.7465L27.047 29.3926C26.4317 30.0255 26.124 30.342 25.7311 30.3616C25.3383 30.3812 25.0006 30.0971 24.3252 29.5287L23.9344 29.1998C22.6562 28.1241 22.0171 27.5863 21.4578 27.8143C20.8985 28.0424 20.8177 28.8738 20.656 30.5365L20.5921 31.1935C20.5087 32.0519 20.467 32.4811 20.181 32.7405C19.8951 33 19.4639 33 18.6015 33H16.3982C15.5358 33 15.1046 33 14.8186 32.7405C14.5327 32.4811 14.491 32.0519 14.4075 31.1935L14.3437 30.5371C14.1821 28.8743 14.1012 28.043 13.5419 27.8149C12.9826 27.5869 12.3435 28.1247 11.0653 29.2004L10.6744 29.5294C9.99904 30.0977 9.66135 30.3819 9.26849 30.3623C8.87562 30.3426 8.56796 30.0262 7.95264 29.3933L6.35223 27.7472C5.76794 27.1462 5.47579 26.8457 5.45705 26.4688C5.43832 26.0919 5.69922 25.7639 6.22102 25.108L6.71621 24.4854C7.72069 23.2227 8.22293 22.5913 7.9931 22.0449C7.76328 21.4985 6.96073 21.416 5.35564 21.2509L4.71187 21.1847C3.85842 21.0969 3.4317 21.053 3.1741 20.7675C2.9165 20.4821 2.9165 20.0531 2.9165 19.1952V16.8048C2.9165 15.9469 2.9165 15.5179 3.1741 15.2325C3.4317 14.947 3.85842 14.9031 4.71187 14.8153L5.35619 14.7491C6.96128 14.584 7.76382 14.5014 7.99365 13.955C8.22347 13.4087 7.72123 12.7773 6.71675 11.5145L6.22108 10.8914C5.69928 10.2354 5.43838 9.90741 5.45712 9.53054C5.47585 9.15366 5.768 8.85317 6.3523 8.25218L7.95271 6.60604C8.56803 5.97314 8.87568 5.65669 9.26855 5.63705C9.66141 5.61741 9.9991 5.90159 10.6745 6.46996L11.0654 6.79894C12.3436 7.87462 12.9827 8.41246 13.542 8.18441C14.1013 7.95637 14.1821 7.12499 14.3438 5.46224L14.4075 4.80647C14.491 3.94812 14.5327 3.51894 14.8186 3.25947C15.1046 3 15.5358 3 16.3982 3H18.6015C19.4639 3 19.8951 3 20.181 3.25947ZM17.4998 24C20.7215 24 23.3332 21.3137 23.3332 18C23.3332 14.6863 20.7215 12 17.4998 12C14.2782 12 11.6665 14.6863 11.6665 18C11.6665 21.3137 14.2782 24 17.4998 24Z" fill="white"/>
<path d="M20.5921 4.80647L19.5968 4.90323L20.5921 4.80647ZM20.6559 5.46283L19.6606 5.55959V5.55959L20.6559 5.46283ZM21.4577 8.185L21.0802 9.11099V9.11099L21.4577 8.185ZM23.9343 6.79953L23.2905 6.03441V6.03441L23.9343 6.79953ZM24.3251 6.47064L24.969 7.23576V7.23576L24.3251 6.47064ZM25.7311 5.63773L25.781 4.63898L25.781 4.63898L25.7311 5.63773ZM27.0469 6.60672L27.7639 5.90964L27.7639 5.90964L27.0469 6.60672ZM28.6473 8.25285L27.9303 8.94993V8.94993L28.6473 8.25285ZM29.5425 9.53121L28.5437 9.58087V9.58087L29.5425 9.53121ZM28.7785 10.8921L29.5611 11.5146L29.5611 11.5146L28.7785 10.8921ZM28.2834 11.5146L27.5008 10.892V10.892L28.2834 11.5146ZM27.0065 13.9551L27.9283 13.5674V13.5674L27.0065 13.9551ZM29.6439 14.7491L29.5416 15.7439L29.6439 14.7491ZM30.2878 14.8153L30.3901 13.8206L30.2878 14.8153ZM31.8256 15.2325L31.0832 15.9024V15.9024L31.8256 15.2325ZM31.8256 20.7675L32.568 21.4375L32.568 21.4375L31.8256 20.7675ZM30.2878 21.1847L30.1855 20.1899L30.1855 20.1899L30.2878 21.1847ZM29.6445 21.2508L29.7468 22.2456L29.6445 21.2508ZM27.007 22.0449L27.9288 22.4326V22.4326L27.007 22.0449ZM28.2839 24.4854L29.0665 23.8629L29.0665 23.8629L28.2839 24.4854ZM28.7786 25.1073L27.996 25.7298L27.996 25.7298L28.7786 25.1073ZM29.5426 26.4681L28.5438 26.4185V26.4185L29.5426 26.4681ZM28.6474 27.7465L27.9304 27.0494L28.6474 27.7465ZM27.047 29.3926L27.764 30.0897L27.047 29.3926ZM25.7311 30.3616L25.7811 31.3604L25.7311 30.3616ZM24.3252 29.5287L24.9691 28.7636L24.9691 28.7636L24.3252 29.5287ZM23.9344 29.1998L23.2905 29.9649L23.2905 29.9649L23.9344 29.1998ZM21.4578 27.8143L21.0802 26.8883L21.4578 27.8143ZM20.656 30.5365L19.6607 30.4397V30.4397L20.656 30.5365ZM20.5921 31.1935L21.5874 31.2903L20.5921 31.1935ZM20.181 32.7405L19.509 32L19.509 32L20.181 32.7405ZM14.8186 32.7405L15.4907 32L15.4907 32L14.8186 32.7405ZM14.4075 31.1935L15.4028 31.0968L14.4075 31.1935ZM14.3437 30.5371L15.339 30.4403L14.3437 30.5371ZM13.5419 27.8149L13.1644 28.7409L13.5419 27.8149ZM11.0653 29.2004L10.4214 28.4353H10.4214L11.0653 29.2004ZM10.6744 29.5294L10.0305 28.7643L10.6744 29.5294ZM9.26849 30.3623L9.21855 31.361L9.26849 30.3623ZM7.95264 29.3933L8.66964 28.6962H8.66964L7.95264 29.3933ZM6.35223 27.7472L5.63524 28.4442H5.63524L6.35223 27.7472ZM5.45705 26.4688L4.45829 26.5185L5.45705 26.4688ZM6.22102 25.108L5.43842 24.4854L5.43842 24.4854L6.22102 25.108ZM6.71621 24.4854L7.49881 25.108L7.49881 25.108L6.71621 24.4854ZM5.35564 21.2509L5.25332 22.2456H5.25332L5.35564 21.2509ZM4.71187 21.1847L4.81419 20.1899H4.81418L4.71187 21.1847ZM3.1741 20.7675L2.4317 21.4375L2.4317 21.4375L3.1741 20.7675ZM3.1741 15.2325L3.9165 15.9024L3.9165 15.9024L3.1741 15.2325ZM4.71187 14.8153L4.60955 13.8206H4.60955L4.71187 14.8153ZM5.35619 14.7491L5.45851 15.7438H5.45851L5.35619 14.7491ZM7.99365 13.955L7.07188 13.5673V13.5673L7.99365 13.955ZM6.71675 11.5145L7.49935 10.892V10.892L6.71675 11.5145ZM6.22108 10.8914L7.00368 10.2689L6.22108 10.8914ZM5.45712 9.53054L6.45588 9.58019V9.58019L5.45712 9.53054ZM6.3523 8.25218L7.06929 8.94925L6.3523 8.25218ZM7.95271 6.60604L8.6697 7.30312H8.6697L7.95271 6.60604ZM9.26855 5.63705L9.21861 4.6383L9.26855 5.63705ZM10.6745 6.46996L10.0306 7.23508H10.0306L10.6745 6.46996ZM11.0654 6.79894L11.7093 6.03382L11.7093 6.03382L11.0654 6.79894ZM13.542 8.18441L13.1644 7.25842L13.1644 7.25842L13.542 8.18441ZM14.3438 5.46224L15.3391 5.559L14.3438 5.46224ZM14.4075 4.80647L15.4028 4.90323V4.90323L14.4075 4.80647ZM14.8186 3.25947L14.1466 2.51894L14.1466 2.51894L14.8186 3.25947ZM21.5874 4.7097C21.5483 4.30718 21.5116 3.90953 21.4372 3.58504C21.3565 3.2327 21.2058 2.83908 20.8531 2.51894L19.509 4C19.4422 3.93933 19.4553 3.89004 19.4878 4.03174C19.5266 4.2013 19.5525 4.44741 19.5968 4.90323L21.5874 4.7097ZM21.6513 5.36606L21.5874 4.7097L19.5968 4.90323L19.6606 5.55959L21.6513 5.36606ZM21.8353 7.25902C22.0132 7.33156 21.9667 7.47709 21.8782 7.12088C21.79 6.76553 21.7354 6.23128 21.6513 5.36606L19.6606 5.55959C19.7382 6.35713 19.8048 7.06994 19.9372 7.60298C20.0694 8.13516 20.343 8.8104 21.0802 9.11099L21.8353 7.25902ZM23.2905 6.03441C22.6253 6.59415 22.2127 6.93791 21.9012 7.13023C21.5889 7.32303 21.6574 7.18648 21.8353 7.25902L21.0802 9.11099C21.8174 9.41158 22.4851 9.12013 22.9517 8.83209C23.4191 8.54359 23.9651 8.08059 24.5782 7.56465L23.2905 6.03441ZM23.6813 5.70553L23.2905 6.03441L24.5782 7.56465L24.969 7.23576L23.6813 5.70553ZM25.781 4.63898C25.2957 4.61471 24.9044 4.79316 24.5946 4.99167C24.309 5.17468 23.9982 5.43884 23.6813 5.70553L24.969 7.23576C25.3275 6.93408 25.5233 6.77196 25.6735 6.67569C25.7996 6.59493 25.7736 6.6411 25.6811 6.63648L25.781 4.63898ZM27.7639 5.90964C27.4752 5.61268 27.1923 5.31883 26.9263 5.10825C26.6378 4.87982 26.2663 4.66324 25.781 4.63898L25.6811 6.63648C25.5887 6.63186 25.5675 6.58333 25.6848 6.67626C25.8247 6.78703 26.0033 6.96786 26.3299 7.3038L27.7639 5.90964ZM29.3643 7.55578L27.7639 5.90964L26.3299 7.3038L27.9303 8.94993L29.3643 7.55578ZM30.5413 9.48156C30.5182 9.01723 30.3187 8.65762 30.1062 8.37505C29.9107 8.11509 29.6381 7.83742 29.3643 7.55578L27.9303 8.94993C28.2408 9.26928 28.4064 9.44235 28.5078 9.57711C28.5921 9.68925 28.5481 9.66833 28.5437 9.58087L30.5413 9.48156ZM29.5611 11.5146C29.8057 11.2072 30.0494 10.9038 30.2181 10.6258C30.4016 10.3235 30.5644 9.94589 30.5413 9.48156L28.5437 9.58087C28.5394 9.49341 28.5811 9.46823 28.5083 9.58818C28.4209 9.73232 28.2732 9.92097 27.9959 10.2695L29.5611 11.5146ZM29.066 12.1371L29.5611 11.5146L27.9959 10.2695L27.5008 10.892L29.066 12.1371ZM27.9283 13.5674C27.9998 13.7373 27.8729 13.806 28.0474 13.5046C28.2238 13.2001 28.5426 12.795 29.066 12.1371L27.5008 10.892C27.0197 11.4969 26.5851 12.0389 26.3167 12.5023C26.0465 12.9689 25.7834 13.6265 26.0847 14.3428L27.9283 13.5674ZM29.7463 13.7544C28.91 13.6683 28.3974 13.6129 28.0564 13.526C27.7189 13.44 27.8568 13.3974 27.9283 13.5674L26.0847 14.3428C26.386 15.0592 27.04 15.331 27.5626 15.4641C28.0815 15.5964 28.7728 15.6648 29.5416 15.7439L29.7463 13.7544ZM30.3901 13.8206L29.7463 13.7544L29.5416 15.7439L30.1855 15.8101L30.3901 13.8206ZM32.568 14.5625C32.2502 14.2104 31.8591 14.0585 31.5086 13.9762C31.1859 13.9005 30.7903 13.8617 30.3901 13.8206L30.1855 15.8101C30.6388 15.8567 30.8833 15.8838 31.0517 15.9233C31.1923 15.9563 31.1433 15.9691 31.0832 15.9024L32.568 14.5625ZM33.0832 16.8048C33.0832 16.4026 33.0851 16.0051 33.0428 15.6763C32.9968 15.3192 32.8857 14.9146 32.568 14.5625L31.0832 15.9024C31.023 15.8358 31.0407 15.7884 31.0592 15.9316C31.0812 16.1032 31.0832 16.3492 31.0832 16.8048H33.0832ZM33.0832 19.1952V16.8048H31.0832V19.1952H33.0832ZM32.568 21.4375C32.8857 21.0854 32.9968 20.6808 33.0428 20.3237C33.0851 19.9949 33.0832 19.5974 33.0832 19.1952H31.0832C31.0832 19.6508 31.0812 19.8968 31.0592 20.0684C31.0407 20.2116 31.023 20.1642 31.0832 20.0976L32.568 21.4375ZM30.3901 22.1794C30.7903 22.1383 31.1859 22.0995 31.5086 22.0238C31.8591 21.9415 32.2502 21.7896 32.568 21.4375L31.0832 20.0976C31.1433 20.0309 31.1923 20.0437 31.0517 20.0767C30.8833 20.1162 30.6388 20.1433 30.1855 20.1899L30.3901 22.1794ZM29.7468 22.2456L30.3901 22.1794L30.1855 20.1899L29.5422 20.2561L29.7468 22.2456ZM27.9288 22.4326C27.8573 22.6026 27.7195 22.5599 28.057 22.4739C28.398 22.387 28.9105 22.3316 29.7468 22.2456L29.5422 20.2561C28.7734 20.3352 28.0821 20.4036 27.5631 20.5358C27.0406 20.669 26.3866 20.9408 26.0853 21.6571L27.9288 22.4326ZM29.0665 23.8629C28.5432 23.2049 28.2243 22.7998 28.048 22.4953C27.8734 22.1939 28.0003 22.2626 27.9288 22.4326L26.0853 21.6571C25.7839 22.3735 26.047 23.031 26.3173 23.4976C26.5857 23.9611 27.0202 24.5031 27.5013 25.1079L29.0665 23.8629ZM29.5612 24.4848L29.0665 23.8629L27.5013 25.1079L27.996 25.7298L29.5612 24.4848ZM30.5413 26.5178C30.5644 26.0534 30.4016 25.6758 30.2182 25.3736C30.0494 25.0955 29.8057 24.7922 29.5612 24.4847L27.996 25.7298C28.2733 26.0784 28.4209 26.267 28.5084 26.4112C28.5812 26.5311 28.5395 26.5059 28.5438 26.4185L30.5413 26.5178ZM29.3644 28.4436C29.6382 28.1619 29.9108 27.8842 30.1063 27.6243C30.3188 27.3417 30.5183 26.9821 30.5413 26.5178L28.5438 26.4185C28.5482 26.331 28.5922 26.3101 28.5078 26.4222C28.4065 26.557 28.2409 26.7301 27.9304 27.0494L29.3644 28.4436ZM27.764 30.0897L29.3644 28.4436L27.9304 27.0494L26.33 28.6955L27.764 30.0897ZM25.7811 31.3604C26.2664 31.3361 26.6379 31.1195 26.9264 30.8911C27.1924 30.6805 27.4753 30.3867 27.764 30.0897L26.33 28.6955C26.0034 29.0315 25.8248 29.2123 25.6849 29.3231C25.5675 29.416 25.5887 29.3675 25.6812 29.3629L25.7811 31.3604ZM23.6813 30.2938C23.9982 30.5605 24.309 30.8247 24.5947 31.0077C24.9045 31.2062 25.2958 31.3846 25.7811 31.3604L25.6812 29.3629C25.7737 29.3582 25.7996 29.4044 25.6736 29.3236C25.5233 29.2274 25.3276 29.0653 24.9691 28.7636L23.6813 30.2938ZM23.2905 29.9649L23.6813 30.2938L24.9691 28.7636L24.5783 28.4347L23.2905 29.9649ZM21.8354 28.7403C21.6574 28.8129 21.5889 28.6763 21.9012 28.8691C22.2128 29.0614 22.6254 29.4052 23.2905 29.9649L24.5783 28.4347C23.9652 27.9187 23.4192 27.4557 22.9518 27.1672C22.4852 26.8792 21.8175 26.5878 21.0802 26.8883L21.8354 28.7403ZM21.6513 30.6333C21.7354 29.7681 21.79 29.2338 21.8783 28.8785C21.9668 28.5222 22.0133 28.6678 21.8354 28.7403L21.0802 26.8883C20.343 27.1889 20.0695 27.8642 19.9373 28.3964C19.8049 28.9294 19.7382 29.6422 19.6607 30.4397L21.6513 30.6333ZM21.5874 31.2903L21.6513 30.6333L19.6607 30.4397L19.5968 31.0968L21.5874 31.2903ZM20.8531 33.4811C21.2058 33.1609 21.3565 32.7673 21.4372 32.415C21.5116 32.0905 21.5483 31.6928 21.5874 31.2903L19.5968 31.0968C19.5525 31.5526 19.5266 31.7987 19.4878 31.9683C19.4553 32.11 19.4422 32.0607 19.509 32L20.8531 33.4811ZM18.6015 34C19.0059 34 19.4053 34.0019 19.7354 33.9593C20.0939 33.9131 20.5003 33.8012 20.8531 33.4811L19.509 32C19.5759 31.9393 19.6237 31.9572 19.4795 31.9758C19.307 31.9981 19.0595 32 18.6015 32V34ZM16.3982 34H18.6015V32H16.3982V34ZM14.1466 33.4811C14.4994 33.8012 14.9057 33.9131 15.2642 33.9593C15.5944 34.0019 15.9937 34 16.3982 34V32C15.9402 32 15.6927 31.9981 15.5202 31.9758C15.376 31.9572 15.4238 31.9393 15.4907 32L14.1466 33.4811ZM13.4122 31.2903C13.4514 31.6928 13.4881 32.0905 13.5624 32.415C13.6432 32.7673 13.7938 33.1609 14.1466 33.4811L15.4907 32C15.5575 32.0607 15.5444 32.11 15.5119 31.9683C15.473 31.7987 15.4472 31.5526 15.4028 31.0968L13.4122 31.2903ZM13.3484 30.6339L13.4122 31.2903L15.4028 31.0968L15.339 30.4403L13.3484 30.6339ZM13.1644 28.7409C12.9865 28.6684 13.033 28.5228 13.1214 28.879C13.2097 29.2344 13.2643 29.7686 13.3484 30.6339L15.339 30.4403C15.2615 29.6428 15.1949 28.93 15.0625 28.3969C14.9303 27.8648 14.6567 27.1895 13.9195 26.8889L13.1644 28.7409ZM11.7092 29.9655C12.3743 29.4058 12.7869 29.062 13.0985 28.8697C13.4108 28.6769 13.3423 28.8134 13.1644 28.7409L13.9195 26.8889C13.1823 26.5883 12.5145 26.8798 12.0479 27.1678C11.5806 27.4563 11.0345 27.9193 10.4214 28.4353L11.7092 29.9655ZM11.3183 30.2945L11.7092 29.9655L10.4214 28.4353L10.0305 28.7643L11.3183 30.2945ZM9.21855 31.361C9.70388 31.3853 10.0951 31.2069 10.405 31.0083C10.6906 30.8253 11.0014 30.5612 11.3183 30.2945L10.0305 28.7643C9.67204 29.0659 9.47631 29.2281 9.32605 29.3243C9.19999 29.4051 9.22596 29.3589 9.31842 29.3635L9.21855 31.361ZM7.23565 30.0904C7.52436 30.3873 7.80727 30.6812 8.07323 30.8918C8.36174 31.1202 8.73323 31.3368 9.21855 31.361L9.31842 29.3635C9.41088 29.3682 9.43211 29.4167 9.31474 29.3238C9.17483 29.213 8.99624 29.0321 8.66964 28.6962L7.23565 30.0904ZM5.63524 28.4442L7.23565 30.0904L8.66964 28.6962L7.06923 27.0501L5.63524 28.4442ZM4.45829 26.5185C4.48137 26.9828 4.68083 27.3424 4.89333 27.625C5.08883 27.8849 5.36142 28.1626 5.63524 28.4442L7.06923 27.0501C6.75875 26.7307 6.59312 26.5577 6.49178 26.4229C6.40746 26.3108 6.45147 26.3317 6.45582 26.4191L4.45829 26.5185ZM5.43842 24.4854C5.19388 24.7928 4.95018 25.0962 4.78144 25.3742C4.59801 25.6765 4.4352 26.0541 4.45829 26.5185L6.45582 26.4191C6.46017 26.5066 6.41844 26.5318 6.49123 26.4118C6.57871 26.2677 6.72635 26.079 7.00362 25.7305L5.43842 24.4854ZM5.93361 23.8629L5.43842 24.4854L7.00362 25.7305L7.49881 25.108L5.93361 23.8629ZM7.07133 22.4326C6.99983 22.2626 7.12672 22.194 6.95217 22.4953C6.77579 22.7999 6.45697 23.205 5.93361 23.8629L7.49881 25.108C7.97992 24.5031 8.41446 23.9611 8.68287 23.4977C8.95311 23.0311 9.2162 22.3735 8.91488 21.6572L7.07133 22.4326ZM5.25332 22.2456C6.08963 22.3317 6.60214 22.387 6.94317 22.4739C7.28066 22.5599 7.14283 22.6026 7.07133 22.4326L8.91488 21.6572C8.61355 20.9408 7.95954 20.669 7.43702 20.5359C6.91806 20.4036 6.22675 20.3352 5.45796 20.2561L5.25332 22.2456ZM4.60955 22.1794L5.25332 22.2456L5.45796 20.2561L4.81419 20.1899L4.60955 22.1794ZM2.4317 21.4375C2.74945 21.7896 3.14057 21.9415 3.49107 22.0238C3.81381 22.0995 4.20938 22.1383 4.60955 22.1794L4.81418 20.1899C4.36091 20.1433 4.1164 20.1162 3.94801 20.0767C3.8074 20.0437 3.85635 20.0309 3.9165 20.0976L2.4317 21.4375ZM1.9165 19.1952C1.9165 19.5974 1.91457 19.9949 1.95689 20.3237C2.00285 20.6808 2.11395 21.0854 2.4317 21.4375L3.91651 20.0976C3.97665 20.1642 3.95896 20.2116 3.94052 20.0684C3.91844 19.8968 3.9165 19.6508 3.9165 19.1952H1.9165ZM1.9165 16.8048V19.1952H3.9165V16.8048H1.9165ZM2.4317 14.5625C2.11395 14.9146 2.00285 15.3192 1.95689 15.6763C1.91457 16.0051 1.9165 16.4026 1.9165 16.8048H3.9165C3.9165 16.3492 3.91844 16.1032 3.94052 15.9316C3.95896 15.7884 3.97665 15.8358 3.9165 15.9024L2.4317 14.5625ZM4.60955 13.8206C4.20938 13.8617 3.81381 13.9005 3.49107 13.9762C3.14057 14.0585 2.74945 14.2104 2.4317 14.5625L3.9165 15.9024C3.85636 15.9691 3.8074 15.9563 3.94801 15.9233C4.1164 15.8838 4.36091 15.8567 4.81419 15.8101L4.60955 13.8206ZM5.25387 13.7543L4.60955 13.8206L4.81419 15.8101L5.45851 15.7438L5.25387 13.7543ZM7.07188 13.5673C7.14338 13.3973 7.2812 13.44 6.94372 13.526C6.60269 13.6129 6.09017 13.6683 5.25387 13.7543L5.45851 15.7438C6.2273 15.6647 6.9186 15.5963 7.43757 15.4641C7.96009 15.3309 8.61409 15.0591 8.91542 14.3428L7.07188 13.5673ZM5.93415 12.137C6.45752 12.795 6.77634 13.2001 6.95272 13.5046C7.12726 13.806 7.00037 13.7373 7.07188 13.5673L8.91542 14.3428C9.21675 13.6264 8.95365 12.9689 8.68341 12.5023C8.41501 12.0388 7.98047 11.4968 7.49935 10.892L5.93415 12.137ZM5.43848 11.5139L5.93415 12.137L7.49935 10.892L7.00368 10.2689L5.43848 11.5139ZM4.45835 9.48088C4.43526 9.94521 4.59807 10.3228 4.7815 10.6251C4.95024 10.9032 5.19395 11.2065 5.43848 11.5139L7.00368 10.2689C6.72642 9.92029 6.57877 9.73164 6.4913 9.5875C6.41851 9.46755 6.46023 9.49273 6.45588 9.58019L4.45835 9.48088ZM5.6353 7.5551C5.36148 7.83674 5.08889 8.11441 4.8934 8.37437C4.68089 8.65695 4.48143 9.01655 4.45835 9.48088L6.45588 9.58019C6.45153 9.66765 6.40752 9.68857 6.49185 9.57643C6.59319 9.44167 6.75882 9.2686 7.06929 8.94925L5.6353 7.5551ZM7.23571 5.90896L5.6353 7.5551L7.06929 8.94925L8.6697 7.30312L7.23571 5.90896ZM9.21861 4.6383C8.73329 4.66256 8.3618 4.87914 8.07329 5.10757C7.80733 5.31815 7.52443 5.612 7.23571 5.90896L8.6697 7.30312C8.9963 6.96719 9.17489 6.78636 9.3148 6.67558C9.43217 6.58265 9.41094 6.63118 9.31848 6.6358L9.21861 4.6383ZM11.3184 5.70485C11.0015 5.43816 10.6907 5.174 10.405 4.99099C10.0952 4.79248 9.70394 4.61403 9.21861 4.6383L9.31848 6.6358C9.22602 6.64042 9.20006 6.59425 9.32611 6.67501C9.47637 6.77128 9.67211 6.9334 10.0306 7.23508L11.3184 5.70485ZM11.7093 6.03382L11.3184 5.70485L10.0306 7.23508L10.4215 7.56405L11.7093 6.03382ZM13.1644 7.25842C13.3424 7.18588 13.4109 7.32243 13.0986 7.12964C12.787 6.93732 12.3744 6.59355 11.7093 6.03382L10.4215 7.56405C11.0346 8.08 11.5806 8.543 12.048 8.8315C12.5146 9.11954 13.1823 9.41099 13.9195 9.1104L13.1644 7.25842ZM13.3485 5.36547C13.2644 6.23069 13.2098 6.76494 13.1215 7.12029C13.033 7.4765 12.9865 7.33096 13.1644 7.25842L13.9195 9.1104C14.6568 8.80981 14.9303 8.13457 15.0625 7.60239C15.1949 7.06935 15.2616 6.35654 15.3391 5.559L13.3485 5.36547ZM13.4122 4.7097L13.3485 5.36547L15.3391 5.559L15.4028 4.90323L13.4122 4.7097ZM14.1466 2.51894C13.7938 2.83909 13.6432 3.2327 13.5624 3.58504C13.4881 3.90953 13.4514 4.30718 13.4122 4.7097L15.4028 4.90323C15.4472 4.44741 15.473 4.2013 15.5119 4.03174C15.5444 3.89004 15.5575 3.93933 15.4907 4L14.1466 2.51894ZM16.3982 2C15.9937 2 15.5944 1.99805 15.2642 2.04066C14.9057 2.08692 14.4994 2.1988 14.1466 2.51894L15.4907 4C15.4238 4.06067 15.376 4.04282 15.5202 4.02421C15.6927 4.00195 15.9402 4 16.3982 4V2ZM18.6015 2H16.3982V4H18.6015V2ZM20.8531 2.51894C20.5003 2.1988 20.0939 2.08692 19.7354 2.04066C19.4053 1.99805 19.0059 2 18.6015 2V4C19.0595 4 19.307 4.00195 19.4795 4.02421C19.6237 4.04282 19.5759 4.06067 19.509 4L20.8531 2.51894ZM22.3332 18C22.3332 20.7882 20.1428 23 17.4998 23V25C21.3002 25 24.3332 21.8393 24.3332 18H22.3332ZM17.4998 13C20.1428 13 22.3332 15.2118 22.3332 18H24.3332C24.3332 14.1607 21.3002 11 17.4998 11V13ZM12.6665 18C12.6665 15.2118 14.8568 13 17.4998 13V11C13.6995 11 10.6665 14.1607 10.6665 18H12.6665ZM17.4998 23C14.8568 23 12.6665 20.7882 12.6665 18H10.6665C10.6665 21.8393 13.6995 25 17.4998 25V23Z" fill="#33363F"/>
</svg>
