<svg width="16" height="17" viewBox="0 0 16 17" fill="none" xmlns="http://www.w3.org/2000/svg">
<path d="M8 2L8.70711 1.29289L8 0.585786L7.29289 1.29289L8 2ZM7 11C7 11.5523 7.44772 12 8 12C8.55229 12 9 11.5523 9 11H7ZM3 16L3 15H3V16ZM13 16V17V16ZM3.70711 7.70711L8.70711 2.70711L7.29289 1.29289L2.29289 6.29289L3.70711 7.70711ZM7.29289 2.70711L12.2929 7.70711L13.7071 6.29289L8.70711 1.29289L7.29289 2.70711ZM7 2L7 11H9V2L7 2ZM3 17L13 17V15L3 15L3 17ZM2 14V13H0V14H2ZM16 14V13H14V14H16ZM13 17C14.6569 17 16 15.6569 16 14H14C14 14.5523 13.5523 15 13 15V17ZM3 15C2.44772 15 2 14.5523 2 14H0C0 15.6569 1.34315 17 3 17V15Z" fill="#222222"/>
</svg>
